<svg width="31" height="24" viewBox="0 0 31 24" fill="none" xmlns="http://www.w3.org/2000/svg">
<path d="M25.0972 6H5.08109C3.13027 6 1.54883 7.34315 1.54883 9V19C1.54883 20.6569 3.13027 22 5.08109 22H25.0972C27.048 22 28.6295 20.6569 28.6295 19V9C28.6295 7.34315 27.048 6 25.0972 6Z" stroke="#F4F4F4" stroke-width="3" stroke-linecap="round" stroke-linejoin="round"/>
<path fill-rule="evenodd" clip-rule="evenodd" d="M18.2015 11.8571V16.8571H17.5139L13.9946 13.1301V16.8581H13.1562V11.8581H13.8439L17.3643 15.5871V11.8571" fill="white"/>
<path d="M12.0127 15.131H19.0419M12.0127 13.702H19.0419H12.0127Z" stroke="#F4F4F4" stroke-linecap="round" stroke-linejoin="round"/>
<path d="M15.6771 19C18.9285 19 21.5642 16.7614 21.5642 14C21.5642 11.2386 18.9285 9 15.6771 9C12.4258 9 9.79004 11.2386 9.79004 14C9.79004 16.7614 12.4258 19 15.6771 19Z" stroke="#F4F4F4"/>
<path d="M10.9678 6V4C10.9693 3.46997 11.2179 2.96203 11.6592 2.58724C12.1005 2.21246 12.6985 2.00132 13.3226 2H16.8549C17.4788 2.00158 18.0767 2.2128 18.5179 2.58753C18.9591 2.96227 19.2078 3.47005 19.2097 4V6" stroke="#F4F4F4" stroke-width="3" stroke-linecap="round" stroke-linejoin="round"/>
</svg>
