<svg width="29" height="26" viewBox="0 0 29 26" fill="none" xmlns="http://www.w3.org/2000/svg">
<path d="M11.2539 1V4" stroke="#F4F4F4" stroke-width="2" stroke-linecap="round" stroke-linejoin="round"/>
<path d="M5.55696 17H2.13924C1.8371 17 1.54732 16.8946 1.33368 16.7071C1.12003 16.5196 1 16.2652 1 16V6C1 5.73478 1.12003 5.48043 1.33368 5.29289C1.54732 5.10536 1.8371 5 2.13924 5H8.40506" stroke="#F4F4F4" stroke-width="2" stroke-linecap="round" stroke-linejoin="round"/>
<path d="M14.1016 5H20.3674C20.6695 5 20.9593 5.10536 21.173 5.29289C21.3866 5.48043 21.5066 5.73478 21.5066 6V13.468" stroke="#F4F4F4" stroke-width="2" stroke-linecap="round" stroke-linejoin="round"/>
<path d="M6.93996 18L4.9873 24" stroke="#F4F4F4" stroke-width="2" stroke-linecap="round" stroke-linejoin="round"/>
<path d="M14.1015 5C14.1015 4.73478 13.9814 4.48043 13.7678 4.29289C13.5542 4.10536 13.2644 4 12.9622 4H9.54451C9.24237 4 8.9526 4.10536 8.73895 4.29289C8.5253 4.48043 8.40527 4.73478 8.40527 5C8.40527 5.26522 8.5253 5.51957 8.73895 5.70711C8.9526 5.89464 9.24237 6 9.54451 6H12.9622C13.2644 6 13.5542 5.89464 13.7678 5.70711C13.9814 5.51957 14.1015 5.26522 14.1015 5Z" stroke="#F4F4F4" stroke-width="2" stroke-linecap="round" stroke-linejoin="round"/>
<path d="M11.7881 16H6.69686C6.39471 16 6.10494 16.1054 5.89129 16.2929C5.67764 16.4804 5.55762 16.7348 5.55762 17V17.5C5.55762 17.6326 5.61763 17.7598 5.72446 17.8536C5.83128 17.9473 5.97616 18 6.12724 18H9.01066" stroke="#F4F4F4" stroke-width="2" stroke-linecap="round" stroke-linejoin="round"/>
<path d="M19.2286 15.057L11.2539 17.837L19.2286 20.307L27.2033 17.837L19.2286 15.057Z" stroke="#F4F4F4" stroke-width="2" stroke-linecap="round" stroke-linejoin="round"/>
<path d="M11.2539 17.837V21.5" stroke="#F4F4F4" stroke-width="2" stroke-linecap="round" stroke-linejoin="round"/>
<path d="M14.6709 18.896V22.05C14.6702 22.2004 14.721 22.3476 14.8166 22.4724C14.9123 22.5972 15.0485 22.6939 15.2075 22.75L18.91 23.95C19.114 24.022 19.3417 24.022 19.5457 23.95L23.2482 22.75C23.4073 22.6939 23.5434 22.5972 23.6391 22.4724C23.7348 22.3476 23.7855 22.2004 23.7848 22.05V18.896" stroke="#F4F4F4" stroke-width="2" stroke-linecap="round" stroke-linejoin="round"/>
</svg>
