<svg width="27" height="25" viewBox="0 0 27 25" fill="none" xmlns="http://www.w3.org/2000/svg">
<path d="M20.6875 23.0015H6.06247L4.16235 16.2435C4.12099 16.0961 4.11795 15.9423 4.15346 15.7937C4.18897 15.6451 4.26209 15.5057 4.36727 15.3859C4.47245 15.2662 4.60694 15.1694 4.76051 15.1028C4.91408 15.0362 5.08271 15.0015 5.2536 15.0015H21.4963C21.6672 15.0015 21.8359 15.0362 21.9894 15.1028C22.143 15.1694 22.2775 15.2662 22.3827 15.3859C22.4879 15.5057 22.561 15.6451 22.5965 15.7937C22.632 15.9423 22.6289 16.0961 22.5876 16.2435L20.6875 23.0015Z" stroke="#F4F4F4" stroke-width="2" stroke-linecap="round" stroke-linejoin="round"/>
<path d="M1 23.0015H25.75" stroke="#F4F4F4" stroke-width="2" stroke-linecap="round" stroke-linejoin="round"/>
<path d="M13.375 12.0015V13.5015" stroke="#F4F4F4" stroke-width="2" stroke-linecap="round" stroke-linejoin="round"/>
<path d="M14.6878 4.50144C15.5718 4.5021 16.4467 4.34322 17.2595 4.03444C17.1552 3.31323 16.7992 2.63922 16.2416 2.10719C15.6839 1.57515 14.9527 1.21185 14.1508 1.06838C13.3488 0.924901 12.5164 1.00846 11.7707 1.30731C11.0249 1.60616 10.4033 2.10526 9.99316 2.73444C10.6026 3.29357 11.3322 3.73811 12.1386 4.04165C12.9451 4.3452 13.812 4.50156 14.6878 4.50144V4.50144Z" stroke="#F4F4F4" stroke-width="2" stroke-linecap="round" stroke-linejoin="round"/>
<path d="M13.375 8.00146C15.5496 8.00146 17.3125 6.43446 17.3125 4.50146C17.3125 2.56847 15.5496 1.00146 13.375 1.00146C11.2004 1.00146 9.4375 2.56847 9.4375 4.50146C9.4375 6.43446 11.2004 8.00146 13.375 8.00146Z" stroke="#F4F4F4" stroke-width="2" stroke-linecap="round" stroke-linejoin="round"/>
<path d="M13.375 20.0015C14.1517 20.0015 14.7812 19.4418 14.7812 18.7515C14.7812 18.0611 14.1517 17.5015 13.375 17.5015C12.5983 17.5015 11.9688 18.0611 11.9688 18.7515C11.9688 19.4418 12.5983 20.0015 13.375 20.0015Z" stroke="#F4F4F4" stroke-width="2" stroke-linecap="round" stroke-linejoin="round"/>
<path d="M18.7134 13.0014C18.3612 11.9874 17.6528 11.1004 16.6922 10.4704C15.7315 9.84031 14.5691 9.50037 13.3752 9.50037C12.1814 9.50037 11.0189 9.84031 10.0583 10.4704C9.09763 11.1004 8.38929 11.9874 8.03711 13.0014" stroke="#F4F4F4" stroke-width="2" stroke-linecap="round" stroke-linejoin="round"/>
</svg>
