<svg width="27" height="6" viewBox="0 0 27 6" fill="none" xmlns="http://www.w3.org/2000/svg">
<path d="M3.31034 0C1.47862 0 0 1.34 0 3C0 4.66 1.47862 6 3.31034 6C5.14207 6 6.62069 4.66 6.62069 3C6.62069 1.34 5.14207 0 3.31034 0ZM23.1724 0C21.3407 0 19.8621 1.34 19.8621 3C19.8621 4.66 21.3407 6 23.1724 6C25.0041 6 26.4828 4.66 26.4828 3C26.4828 1.34 25.0041 0 23.1724 0ZM13.2414 0C11.4097 0 9.93103 1.34 9.93103 3C9.93103 4.66 11.4097 6 13.2414 6C15.0731 6 16.5517 4.66 16.5517 3C16.5517 1.34 15.0731 0 13.2414 0Z" fill="white"/>
</svg>
