<svg width="128" height="18" viewBox="0 0 128 18" fill="none" xmlns="http://www.w3.org/2000/svg">
<path d="M28.0715 16.6222C27.1068 16.6222 26.1836 16.485 25.3019 16.2106C24.4201 15.9361 23.7306 15.5912 23.2332 15.1759L23.9566 13.9297C24.454 14.3154 25.0795 14.6307 25.8332 14.8755C26.5868 15.1202 27.3706 15.2426 28.1845 15.2426C29.2698 15.2426 30.0724 15.0757 30.5924 14.7419C31.1124 14.4082 31.3724 13.9372 31.3724 13.3289C31.3724 12.8987 31.2292 12.5612 30.9428 12.3165C30.6564 12.0717 30.2947 11.8863 29.8576 11.7602C29.4205 11.6341 28.8402 11.5117 28.1167 11.393C27.152 11.215 26.3758 11.0333 25.788 10.8478C25.2001 10.6624 24.699 10.3472 24.2845 9.90213C23.87 9.45709 23.6627 8.84146 23.6627 8.05522C23.6627 7.07613 24.0772 6.27506 24.9062 5.652C25.7352 5.02895 26.8883 4.71742 28.3654 4.71742C29.1341 4.71742 29.9028 4.81755 30.6715 5.01782C31.4402 5.21809 32.0733 5.4814 32.5707 5.80777L31.8698 7.07613C30.8901 6.40857 29.7219 6.07479 28.3654 6.07479C27.3404 6.07479 26.568 6.25281 26.048 6.60884C25.528 6.96487 25.268 7.43216 25.268 8.01071C25.268 8.45576 25.4149 8.81178 25.7088 9.07881C26.0028 9.34584 26.3683 9.54239 26.8054 9.66849C27.2425 9.79458 27.8454 9.92438 28.6141 10.0579C29.5637 10.2359 30.3248 10.4139 30.8976 10.5919C31.4704 10.77 31.9602 11.0741 32.3672 11.5043C32.7741 11.9345 32.9776 12.5279 32.9776 13.2844C32.9776 14.308 32.5443 15.1202 31.6776 15.721C30.8109 16.3218 29.6089 16.6222 28.0715 16.6222ZM73.3478 0V16.511H71.8103V14.1968C71.328 14.983 70.6912 15.5838 69.8999 15.9992C69.1086 16.4145 68.2155 16.6222 67.2207 16.6222C66.1053 16.6222 65.0955 16.37 64.1911 15.8657C63.2868 15.3613 62.5784 14.6566 62.0659 13.7517C61.5534 12.8468 61.2972 11.8158 61.2972 10.6587C61.2972 9.50159 61.5534 8.47059 62.0659 7.56567C62.5784 6.66076 63.2868 5.95983 64.1911 5.46286C65.0955 4.9659 66.1053 4.71742 67.2207 4.71742C68.1854 4.71742 69.0558 4.91398 69.8321 5.3071C70.6083 5.70022 71.2451 6.27506 71.7425 7.03163V0H73.3478ZM67.3564 15.2204C68.1854 15.2204 68.9352 15.0312 69.606 14.6529C70.2767 14.2746 70.8042 13.7369 71.1886 13.0397C71.573 12.3424 71.7651 11.5488 71.7651 10.6587C71.7651 9.76862 71.573 8.97497 71.1886 8.27774C70.8042 7.58051 70.2767 7.04275 69.606 6.66447C68.9352 6.28618 68.1854 6.09704 67.3564 6.09704C66.5123 6.09704 65.7549 6.28618 65.0842 6.66447C64.4134 7.04275 63.8859 7.58051 63.5016 8.27774C63.1172 8.97497 62.925 9.76862 62.925 10.6587C62.925 11.5488 63.1172 12.3424 63.5016 13.0397C63.8859 13.7369 64.4134 14.2746 65.0842 14.6529C65.7549 15.0312 66.5123 15.2204 67.3564 15.2204ZM80.7107 16.6222C79.7461 16.6222 78.8229 16.485 77.9411 16.2106C77.0594 15.9361 76.3698 15.5912 75.8724 15.1759L76.5959 13.9297C77.0933 14.3154 77.7188 14.6307 78.4724 14.8755C79.2261 15.1202 80.0099 15.2426 80.8238 15.2426C81.909 15.2426 82.7116 15.0757 83.2316 14.7419C83.7516 14.4082 84.0116 13.9372 84.0116 13.3289C84.0116 12.8987 83.8685 12.5612 83.5821 12.3165C83.2957 12.0717 82.934 11.8863 82.4968 11.7602C82.0597 11.6341 81.4794 11.5117 80.756 11.393C79.7913 11.215 79.0151 11.0333 78.4272 10.8478C77.8394 10.6624 77.3382 10.3472 76.9237 9.90213C76.5092 9.45709 76.302 8.84146 76.302 8.05522C76.302 7.07613 76.7165 6.27506 77.5455 5.652C78.3745 5.02895 79.5275 4.71742 81.0047 4.71742C81.7734 4.71742 82.5421 4.81755 83.3108 5.01782C84.0795 5.21809 84.7125 5.4814 85.2099 5.80777L84.509 7.07613C83.5293 6.40857 82.3612 6.07479 81.0047 6.07479C79.9797 6.07479 79.2072 6.25281 78.6872 6.60884C78.1672 6.96487 77.9072 7.43216 77.9072 8.01071C77.9072 8.45576 78.0542 8.81178 78.3481 9.07881C78.642 9.34584 79.0075 9.54239 79.4446 9.66849C79.8817 9.79458 80.4846 9.92438 81.2534 10.0579C82.2029 10.2359 82.9641 10.4139 83.5369 10.5919C84.1096 10.77 84.5995 11.0741 85.0064 11.5043C85.4134 11.9345 85.6169 12.5279 85.6169 13.2844C85.6169 14.308 85.1835 15.1202 84.3169 15.721C83.4502 16.3218 82.2482 16.6222 80.7107 16.6222ZM93.6788 15.7989C93.3774 16.0659 93.0081 16.2699 92.571 16.4108C92.1339 16.5518 91.6742 16.6222 91.1918 16.6222C90.0765 16.6222 89.2173 16.3255 88.6144 15.7322C88.0115 15.1388 87.7101 14.3006 87.7101 13.2177V2.24745H89.3153V4.80643H92.9101V6.14155H89.3153V13.1287C89.3153 13.8259 89.4886 14.3562 89.8353 14.7197C90.182 15.0831 90.6869 15.2649 91.3501 15.2649C92.0736 15.2649 92.6614 15.0646 93.1136 14.6641L93.6788 15.7989ZM107.448 4.80643V16.511H105.91V14.1968C105.428 14.983 104.791 15.5838 104 15.9992C103.208 16.4145 102.315 16.6222 101.321 16.6222C100.205 16.6222 99.1954 16.37 98.2911 15.8657C97.3867 15.3613 96.6783 14.6566 96.1658 13.7517C95.6533 12.8468 95.3971 11.8158 95.3971 10.6587C95.3971 9.50159 95.6533 8.47059 96.1658 7.56567C96.6783 6.66076 97.3867 5.95983 98.2911 5.46286C99.1954 4.9659 100.205 4.71742 101.321 4.71742C102.285 4.71742 103.156 4.91398 103.932 5.3071C104.708 5.70022 105.345 6.27506 105.842 7.03163V4.80643H107.448ZM101.456 15.2204C102.285 15.2204 103.035 15.0312 103.706 14.6529C104.377 14.2746 104.904 13.7369 105.289 13.0397C105.673 12.3424 105.865 11.5488 105.865 10.6587C105.865 9.76862 105.673 8.97497 105.289 8.27774C104.904 7.58051 104.377 7.04275 103.706 6.66447C103.035 6.28618 102.285 6.09704 101.456 6.09704C100.612 6.09704 99.8548 6.28618 99.1841 6.66447C98.5134 7.04275 97.9858 7.58051 97.6015 8.27774C97.2171 8.97497 97.025 9.76862 97.025 10.6587C97.025 11.5488 97.2171 12.3424 97.6015 13.0397C97.9858 13.7369 98.5134 14.2746 99.1841 14.6529C99.8548 15.0312 100.612 15.2204 101.456 15.2204ZM111.877 7.09838C112.254 6.31214 112.815 5.71876 113.561 5.31822C114.308 4.91769 115.231 4.71742 116.331 4.71742V6.25281L115.947 6.23056C114.696 6.23056 113.716 6.60884 113.008 7.36541C112.299 8.12198 111.945 9.18265 111.945 10.5474V16.511H110.34V4.80643H111.877V7.09838ZM122.594 16.6222C121.629 16.6222 120.706 16.485 119.824 16.2106C118.942 15.9361 118.253 15.5912 117.755 15.1759L118.479 13.9297C118.976 14.3154 119.602 14.6307 120.355 14.8755C121.109 15.1202 121.893 15.2426 122.707 15.2426C123.792 15.2426 124.595 15.0757 125.115 14.7419C125.635 14.4082 125.895 13.9372 125.895 13.3289C125.895 12.8987 125.751 12.5612 125.465 12.3165C125.179 12.0717 124.817 11.8863 124.38 11.7602C123.943 11.6341 123.362 11.5117 122.639 11.393C121.674 11.215 120.898 11.0333 120.31 10.8478C119.722 10.6624 119.221 10.3472 118.807 9.90213C118.392 9.45709 118.185 8.84146 118.185 8.05522C118.185 7.07613 118.6 6.27506 119.428 5.652C120.257 5.02895 121.411 4.71742 122.888 4.71742C123.656 4.71742 124.425 4.81755 125.194 5.01782C125.962 5.21809 126.596 5.4814 127.093 5.80777L126.392 7.07613C125.412 6.40857 124.244 6.07479 122.888 6.07479C121.863 6.07479 121.09 6.25281 120.57 6.60884C120.05 6.96487 119.79 7.43216 119.79 8.01071C119.79 8.45576 119.937 8.81178 120.231 9.07881C120.525 9.34584 120.891 9.54239 121.328 9.66849C121.765 9.79458 122.368 9.92438 123.136 10.0579C124.086 10.2359 124.847 10.4139 125.42 10.5919C125.993 10.77 126.482 11.0741 126.889 11.5043C127.296 11.9345 127.5 12.5279 127.5 13.2844C127.5 14.308 127.067 15.1202 126.2 15.721C125.333 16.3218 124.131 16.6222 122.594 16.6222ZM45.8777 11.0636H36.1381C36.2267 12.2989 36.6915 13.2968 37.5326 14.0576C38.3738 14.8183 39.4363 15.1987 40.7201 15.1987C41.4432 15.1987 42.1073 15.0669 42.7123 14.8032C43.3174 14.5396 43.8412 14.1517 44.284 13.6396L45.1694 14.679C44.6529 15.3117 44.0073 15.7937 43.2325 16.1251C42.4578 16.4565 41.6056 16.6222 40.6759 16.6222C39.4806 16.6222 38.4218 16.3624 37.4994 15.8427C36.5771 15.323 35.8577 14.6037 35.3412 13.6847C34.8247 12.7658 34.5665 11.7264 34.5665 10.5665C34.5665 9.40655 34.8137 8.36714 35.308 7.44823C35.8024 6.52932 36.4812 5.81378 37.3445 5.3016C38.2078 4.78942 39.178 4.53334 40.2553 4.53334C41.3326 4.53334 42.2991 4.78942 43.155 5.3016C44.011 5.81378 44.6824 6.52555 45.1694 7.43693C45.6564 8.34831 45.8998 9.39148 45.8998 10.5665L45.8777 11.0636ZM40.2553 5.9117C39.1338 5.9117 38.193 6.277 37.433 7.00761C36.673 7.73822 36.2414 8.69101 36.1381 9.86601H44.3946C44.2913 8.69101 43.8597 7.73822 43.0997 7.00761C42.3397 6.277 41.3916 5.9117 40.2553 5.9117ZM59.4777 11.0636H49.7381C49.8267 12.2989 50.2915 13.2968 51.1327 14.0576C51.9738 14.8183 53.0363 15.1987 54.3202 15.1987C55.0433 15.1987 55.7073 15.0669 56.3123 14.8032C56.9174 14.5396 57.4412 14.1517 57.884 13.6396L58.7694 14.679C58.2529 15.3117 57.6073 15.7937 56.8325 16.1251C56.0578 16.4565 55.2056 16.6222 54.2759 16.6222C53.0806 16.6222 52.0218 16.3624 51.0995 15.8427C50.1771 15.323 49.4577 14.6037 48.9412 13.6847C48.4248 12.7658 48.1665 11.7264 48.1665 10.5665C48.1665 9.40655 48.4137 8.36714 48.908 7.44823C49.4024 6.52932 50.0812 5.81378 50.9445 5.3016C51.8078 4.78942 52.778 4.53334 53.8553 4.53334C54.9326 4.53334 55.8991 4.78942 56.7551 5.3016C57.611 5.81378 58.2824 6.52555 58.7694 7.43693C59.2564 8.34831 59.4998 9.39148 59.4998 10.5665L59.4777 11.0636ZM53.8553 5.9117C52.7338 5.9117 51.793 6.277 51.033 7.00761C50.2731 7.73822 49.8414 8.69101 49.7381 9.86601H57.9946C57.8913 8.69101 57.4597 7.73822 56.6997 7.00761C55.9397 6.277 54.9916 5.9117 53.8553 5.9117Z" fill="#2B2B2B"/>
<mask id="mask0" mask-type="alpha" maskUnits="userSpaceOnUse" x="0" y="1" width="18" height="17">
<path d="M6.95893 1.28467C6.75281 1.28467 6.5874 1.45499 6.59431 1.66366C6.63757 2.91825 6.8077 4.98134 7.10507 7.85402C5.91086 7.16424 4.0263 6.3539 1.45138 5.42264C1.25834 5.35296 1.0435 5.4584 0.980241 5.65637L0.0179646 8.66879C-0.0463811 8.87082 0.0677688 9.08723 0.270258 9.14069C2.17191 9.6465 4.1728 10.1062 6.27294 10.5184C5.44117 11.2945 4.08374 12.8543 2.19954 15.1991C2.06721 15.3639 2.09775 15.6098 2.26788 15.7336L4.73228 17.5342C4.89405 17.6522 5.12017 17.6187 5.23723 17.4553C6.15915 16.169 7.21559 14.3758 8.40616 12.0749C9.68144 14.3025 10.7993 16.0946 11.7594 17.4524C11.8754 17.6175 12.1011 17.6529 12.2644 17.5361L14.7727 15.734C14.9451 15.6105 14.9763 15.3613 14.8422 15.1957C13.0372 12.9693 11.6289 11.4102 10.6172 10.5184C12.621 10.2854 14.6637 9.83121 16.7453 9.15654C16.9376 9.09423 17.0445 8.88262 16.9823 8.68796L16.012 5.65121C15.9495 5.45508 15.7383 5.34853 15.5456 5.41416C13.3826 6.15555 11.4533 6.96 9.75851 7.82748C10.0806 5.39462 10.2758 3.34038 10.3438 1.66514C10.3522 1.4561 10.1857 1.28467 9.97881 1.28467H6.95893Z" fill="white"/>
</mask>
<g mask="url(#mask0)">
<path d="M6.95893 1.28467C6.75281 1.28467 6.5874 1.45499 6.59431 1.66366C6.63757 2.91825 6.8077 4.98134 7.10507 7.85402C5.91086 7.16424 4.0263 6.3539 1.45138 5.42264C1.25834 5.35296 1.0435 5.4584 0.980241 5.65637L0.0179646 8.66879C-0.0463811 8.87082 0.0677688 9.08723 0.270258 9.14069C2.17191 9.6465 4.1728 10.1062 6.27294 10.5184C5.44117 11.2945 4.08374 12.8543 2.19954 15.1991C2.06721 15.3639 2.09775 15.6098 2.26788 15.7336L4.73228 17.5342C4.89405 17.6522 5.12017 17.6187 5.23723 17.4553C6.15915 16.169 7.21559 14.3758 8.40616 12.0749C9.68144 14.3025 10.7993 16.0946 11.7594 17.4524C11.8754 17.6175 12.1011 17.6529 12.2644 17.5361L14.7727 15.734C14.9451 15.6105 14.9763 15.3613 14.8422 15.1957C13.0372 12.9693 11.6289 11.4102 10.6172 10.5184C12.621 10.2854 14.6637 9.83121 16.7453 9.15654C16.9376 9.09423 17.0445 8.88262 16.9823 8.68796L16.012 5.65121C15.9495 5.45508 15.7383 5.34853 15.5456 5.41416C13.3826 6.15555 11.4533 6.96 9.75851 7.82748C10.0806 5.39462 10.2758 3.34038 10.3438 1.66514C10.3522 1.4561 10.1857 1.28467 9.97881 1.28467H6.95893Z" fill="#2B2B2B"/>
</g>
</svg>
