<svg width="510" height="410" viewBox="0 0 510 410" fill="none" xmlns="http://www.w3.org/2000/svg">
<path d="M42.3754 58.2868L54.3402 50.3159L61.3196 37.8615L63.8123 18.4326L75.2786 6.97448H96.217L113.666 4.4836L121.144 0L146.569 10.4617H158.035L170.997 25.9052L179.472 35.8688L187.947 37.8615L193.93 33.8761H201.906L219.355 21.4216L232.317 25.9052L241.29 33.8761L251.261 37.8615L276.188 44.836L298.622 47.3269L303.607 37.8615L309.589 31.3852L324.047 25.9052L342.991 21.4216H358.446H372.405L389.355 25.9052L401.818 33.8761H419.267L426.246 25.9052L438.211 15.9417H450.674L456.158 8.96719H467.126L476.598 21.4216L485.073 33.8761L490.557 51.8105V64.2649L504.516 66.7558L510 73.2321V83.1956L507.507 90.6683L510 94.6537V101.628L500.029 106.61L490.557 113.584L481.584 110.595L472.111 124.544L460.147 146.962V156.926L456.158 161.409H450.674L448.182 169.878L450.674 175.358L448.182 184.326L433.724 191.798V198.773L431.73 217.205L423.754 225.674L413.284 229.66L405.806 233.645V243.609V252.576L396.334 263.038V272.503L384.868 281.968L392.845 289.939L384.868 292.43L376.892 300.899L379.384 304.386L372.405 316.841H358.944L350.968 300.899L336.012 289.939L332.522 297.412L321.056 300.899L318.563 292.43L307.595 300.899L298.622 312.855L287.654 319.83L279.677 327.801L263.226 342.746V370.146L249.267 388.08L237.801 377.618L241.789 396.051H228.827L192.933 404.022L151.554 410L137.097 404.022L126.129 394.058L118.152 372.139L104.692 347.728L91.7302 332.783L79.7654 322.819L68.2991 319.332H61.3196L41.8768 317.339L19.9413 319.332H3.48974V308.87L3.98827 300.899V292.928V276.987L6.48094 272.503L0 255.067L3.98827 239.125L3.48974 232.151L3.98827 205.747L19.9413 201.264V187.813L29.4135 173.864L44.868 160.911L39.3842 153.937L42.3754 146.962H46.8622V131.519L44.868 118.566L34.3988 103.621L39.3842 95.1519L44.868 90.6683L39.3842 87.6792L42.3754 74.7266V58.2868Z" fill="#073731"/>
<path d="M84.8545 160.803H79.5342V175.475H76.5928V160.803H71.3193V158.413H84.8545V160.803ZM89.6357 164.178C90.5654 163.1 91.7412 162.561 93.1631 162.561C95.8662 162.561 97.2373 164.104 97.2764 167.19V175.475H94.4287V167.295C94.4287 166.42 94.2373 165.803 93.8545 165.444C93.4795 165.077 92.9248 164.893 92.1904 164.893C91.0498 164.893 90.1982 165.401 89.6357 166.417V175.475H86.7881V157.475H89.6357V164.178ZM105.749 175.709C103.944 175.709 102.479 175.143 101.354 174.01C100.237 172.87 99.6787 171.354 99.6787 169.463V169.112C99.6787 167.846 99.9209 166.717 100.405 165.725C100.897 164.725 101.585 163.948 102.468 163.393C103.351 162.838 104.335 162.561 105.421 162.561C107.147 162.561 108.479 163.112 109.417 164.213C110.362 165.315 110.835 166.874 110.835 168.889V170.038H102.55C102.636 171.084 102.983 171.913 103.593 172.522C104.21 173.131 104.983 173.436 105.913 173.436C107.218 173.436 108.28 172.909 109.101 171.854L110.636 173.319C110.128 174.077 109.448 174.667 108.597 175.088C107.753 175.502 106.804 175.709 105.749 175.709ZM105.409 164.846C104.628 164.846 103.995 165.12 103.511 165.667C103.034 166.213 102.729 166.975 102.597 167.952H108.022V167.741C107.96 166.788 107.706 166.069 107.261 165.584C106.815 165.092 106.198 164.846 105.409 164.846ZM132.843 175.475H129.878L122.272 163.37V175.475H119.308V158.413H122.272L129.901 170.565V158.413H132.843V175.475ZM139.101 175.475H136.253V162.795H139.101V175.475ZM136.077 159.502C136.077 159.065 136.214 158.702 136.487 158.413C136.769 158.124 137.167 157.979 137.683 157.979C138.198 157.979 138.597 158.124 138.878 158.413C139.159 158.702 139.3 159.065 139.3 159.502C139.3 159.932 139.159 160.292 138.878 160.581C138.597 160.862 138.198 161.002 137.683 161.002C137.167 161.002 136.769 160.862 136.487 160.581C136.214 160.292 136.077 159.932 136.077 159.502ZM141.714 169.042C141.714 167.073 142.175 165.502 143.097 164.331C144.026 163.151 145.257 162.561 146.788 162.561C148.233 162.561 149.37 163.065 150.198 164.073L150.327 162.795H152.894V175.088C152.894 176.752 152.374 178.065 151.335 179.026C150.304 179.987 148.909 180.467 147.151 180.467C146.222 180.467 145.312 180.272 144.421 179.881C143.538 179.499 142.866 178.995 142.405 178.37L143.753 176.659C144.628 177.698 145.706 178.217 146.987 178.217C147.933 178.217 148.679 177.959 149.226 177.444C149.772 176.936 150.046 176.186 150.046 175.194V174.338C149.226 175.252 148.132 175.709 146.765 175.709C145.28 175.709 144.065 175.12 143.12 173.94C142.183 172.76 141.714 171.127 141.714 169.042ZM144.55 169.288C144.55 170.561 144.808 171.565 145.323 172.299C145.847 173.026 146.569 173.389 147.491 173.389C148.64 173.389 149.491 172.897 150.046 171.913V166.334C149.507 165.374 148.663 164.893 147.515 164.893C146.577 164.893 145.847 165.264 145.323 166.006C144.808 166.749 144.55 167.842 144.55 169.288ZM161.413 175.709C159.608 175.709 158.144 175.143 157.019 174.01C155.901 172.87 155.343 171.354 155.343 169.463V169.112C155.343 167.846 155.585 166.717 156.069 165.725C156.562 164.725 157.249 163.948 158.132 163.393C159.015 162.838 159.999 162.561 161.085 162.561C162.812 162.561 164.144 163.112 165.081 164.213C166.026 165.315 166.499 166.874 166.499 168.889V170.038H158.214C158.3 171.084 158.647 171.913 159.257 172.522C159.874 173.131 160.647 173.436 161.577 173.436C162.882 173.436 163.944 172.909 164.765 171.854L166.3 173.319C165.792 174.077 165.112 174.667 164.261 175.088C163.417 175.502 162.468 175.709 161.413 175.709ZM161.073 164.846C160.292 164.846 159.659 165.12 159.175 165.667C158.698 166.213 158.394 166.975 158.261 167.952H163.687V167.741C163.624 166.788 163.37 166.069 162.925 165.584C162.479 165.092 161.862 164.846 161.073 164.846ZM175.358 165.397C174.983 165.334 174.597 165.303 174.198 165.303C172.894 165.303 172.015 165.803 171.562 166.803V175.475H168.714V162.795H171.433L171.503 164.213C172.19 163.112 173.144 162.561 174.362 162.561C174.769 162.561 175.104 162.616 175.37 162.725L175.358 165.397ZM180.187 175.475H177.339V162.795H180.187V175.475ZM177.163 159.502C177.163 159.065 177.3 158.702 177.573 158.413C177.854 158.124 178.253 157.979 178.769 157.979C179.284 157.979 179.683 158.124 179.964 158.413C180.245 158.702 180.386 159.065 180.386 159.502C180.386 159.932 180.245 160.292 179.964 160.581C179.683 160.862 179.284 161.002 178.769 161.002C178.253 161.002 177.854 160.862 177.573 160.581C177.3 160.292 177.163 159.932 177.163 159.502ZM190.874 175.475C190.749 175.233 190.64 174.838 190.546 174.292C189.64 175.237 188.53 175.709 187.218 175.709C185.944 175.709 184.905 175.346 184.101 174.62C183.296 173.893 182.894 172.995 182.894 171.924C182.894 170.573 183.394 169.538 184.394 168.819C185.401 168.092 186.839 167.729 188.706 167.729H190.452V166.897C190.452 166.241 190.269 165.717 189.901 165.327C189.534 164.928 188.976 164.729 188.226 164.729C187.577 164.729 187.046 164.893 186.632 165.221C186.218 165.542 186.011 165.952 186.011 166.452H183.163C183.163 165.756 183.394 165.108 183.854 164.506C184.315 163.897 184.94 163.42 185.729 163.077C186.526 162.733 187.413 162.561 188.39 162.561C189.874 162.561 191.058 162.936 191.94 163.686C192.823 164.428 193.276 165.475 193.3 166.827V172.545C193.3 173.686 193.46 174.596 193.78 175.276V175.475H190.874ZM187.745 173.424C188.308 173.424 188.835 173.288 189.327 173.014C189.827 172.741 190.202 172.374 190.452 171.913V169.522H188.917C187.862 169.522 187.069 169.706 186.538 170.073C186.007 170.44 185.741 170.959 185.741 171.631C185.741 172.178 185.921 172.616 186.28 172.944C186.647 173.264 187.136 173.424 187.745 173.424ZM198.925 162.795L199.007 164.26C199.944 163.127 201.175 162.561 202.698 162.561C205.339 162.561 206.683 164.073 206.729 167.096V175.475H203.882V167.26C203.882 166.456 203.706 165.862 203.354 165.479C203.011 165.088 202.444 164.893 201.655 164.893C200.507 164.893 199.651 165.413 199.089 166.452V175.475H196.241V162.795H198.925ZM93.043 213.399C92.1201 214.424 90.77 215.25 88.9927 215.877C87.2153 216.504 85.2671 216.817 83.1479 216.817C79.8895 216.817 77.2861 215.82 75.3379 213.826C73.3896 211.832 72.3472 209.058 72.2104 205.503L72.1934 203.35C72.1934 200.901 72.6263 198.764 73.4922 196.941C74.3581 195.107 75.5942 193.7 77.2007 192.72C78.8185 191.729 80.687 191.233 82.8062 191.233C85.9051 191.233 88.3091 191.945 90.0181 193.37C91.7384 194.782 92.741 196.896 93.0259 199.71H87.2495C87.0444 198.32 86.6001 197.329 85.9165 196.736C85.2329 196.144 84.2645 195.848 83.0112 195.848C81.5073 195.848 80.3452 196.486 79.5249 197.762C78.7046 199.038 78.2887 200.861 78.2773 203.23V204.734C78.2773 207.218 78.6989 209.087 79.542 210.34C80.3965 211.582 81.7352 212.203 83.5581 212.203C85.119 212.203 86.2811 211.855 87.0444 211.16V207.298H82.8745V203.179H93.043V213.399ZM105.775 207.691H102.528V216.475H96.5293V191.592H106.322C109.273 191.592 111.58 192.247 113.243 193.558C114.907 194.868 115.738 196.719 115.738 199.112C115.738 200.844 115.385 202.279 114.679 203.418C113.984 204.558 112.89 205.481 111.397 206.187L116.593 216.219V216.475H110.167L105.775 207.691ZM102.528 203.06H106.322C107.461 203.06 108.316 202.763 108.885 202.171C109.466 201.567 109.757 200.73 109.757 199.659C109.757 198.588 109.466 197.75 108.885 197.146C108.304 196.531 107.45 196.224 106.322 196.224H102.528V203.06ZM133.495 211.827H125.274L123.839 216.475H117.43L126.556 191.592H132.196L141.39 216.475H134.947L133.495 211.827ZM126.71 207.195H132.059L129.376 198.565L126.71 207.195ZM143.219 216.475V191.592H151.234C153.433 191.592 155.41 192.094 157.164 193.096C158.919 194.087 160.286 195.494 161.266 197.317C162.257 199.129 162.758 201.163 162.77 203.418V204.563C162.77 206.842 162.285 208.887 161.317 210.699C160.36 212.499 159.004 213.912 157.25 214.937C155.506 215.951 153.558 216.464 151.405 216.475H143.219ZM149.217 196.224V211.861H151.302C153.023 211.861 154.344 211.251 155.267 210.032C156.19 208.802 156.651 206.979 156.651 204.563V203.487C156.651 201.083 156.19 199.271 155.267 198.052C154.344 196.833 153 196.224 151.234 196.224H149.217ZM185.362 191.592V207.879C185.362 209.725 184.969 211.325 184.183 212.681C183.397 214.026 182.269 215.051 180.799 215.757C179.33 216.464 177.592 216.817 175.587 216.817C172.556 216.817 170.169 216.031 168.426 214.458C166.683 212.886 165.794 210.733 165.76 207.999V191.592H171.793V208.118C171.861 210.841 173.126 212.203 175.587 212.203C176.829 212.203 177.769 211.861 178.407 211.177C179.045 210.494 179.364 209.383 179.364 207.845V191.592H185.362ZM202.879 211.827H194.659L193.224 216.475H186.815L195.941 191.592H201.581L210.775 216.475H204.332L202.879 211.827ZM196.095 207.195H201.444L198.761 198.565L196.095 207.195ZM230.086 196.224H222.618V216.475H216.62V196.224H209.288V191.592H230.086V196.224ZM248.065 205.931H238.631V211.861H249.774V216.475H232.633V191.592H249.808V196.224H238.631V201.47H248.065V205.931ZM81.9175 249.691H78.6704V258.475H72.6719V233.592H82.4644C85.4152 233.592 87.7223 234.247 89.3857 235.558C91.0492 236.868 91.8809 238.719 91.8809 241.112C91.8809 242.844 91.5277 244.279 90.8213 245.418C90.1263 246.558 89.0326 247.481 87.54 248.187L92.7354 258.219V258.475H86.3096L81.9175 249.691ZM78.6704 245.06H82.4644C83.6037 245.06 84.4582 244.763 85.0278 244.171C85.6089 243.567 85.8994 242.73 85.8994 241.659C85.8994 240.588 85.6089 239.75 85.0278 239.146C84.4468 238.531 83.5923 238.224 82.4644 238.224H78.6704V245.06ZM110.936 247.931H101.502V253.861H112.645V258.475H95.5039V233.592H112.679V238.224H101.502V243.47H110.936V247.931ZM121.087 250.033V258.475H115.089V233.592H125.018C126.921 233.592 128.601 233.945 130.06 234.652C131.529 235.347 132.663 236.344 133.46 237.643C134.269 238.93 134.674 240.394 134.674 242.035C134.674 244.461 133.802 246.404 132.059 247.862C130.327 249.309 127.946 250.033 124.916 250.033H121.087ZM121.087 245.401H125.018C126.18 245.401 127.063 245.111 127.667 244.53C128.282 243.949 128.59 243.128 128.59 242.069C128.59 240.907 128.277 239.978 127.65 239.283C127.023 238.588 126.169 238.235 125.086 238.224H121.087V245.401ZM158.958 246.546C158.958 248.973 158.508 251.121 157.608 252.989C156.708 254.858 155.427 256.299 153.763 257.313C152.111 258.316 150.226 258.817 148.106 258.817C145.987 258.817 144.107 258.333 142.467 257.364C140.826 256.384 139.544 254.989 138.622 253.177C137.71 251.366 137.232 249.286 137.186 246.939V245.538C137.186 243.1 137.63 240.952 138.519 239.095C139.419 237.227 140.701 235.785 142.364 234.771C144.039 233.757 145.942 233.25 148.072 233.25C150.18 233.25 152.06 233.752 153.712 234.754C155.364 235.757 156.646 237.187 157.557 239.044C158.48 240.89 158.947 243.009 158.958 245.401V246.546ZM152.857 245.504C152.857 243.032 152.442 241.157 151.61 239.881C150.79 238.594 149.61 237.95 148.072 237.95C145.064 237.95 143.475 240.206 143.304 244.718L143.287 246.546C143.287 248.985 143.692 250.859 144.5 252.169C145.309 253.479 146.511 254.134 148.106 254.134C149.622 254.134 150.79 253.491 151.61 252.203C152.43 250.916 152.846 249.064 152.857 246.649V245.504ZM171.297 249.691H168.05V258.475H162.052V233.592H171.844C174.795 233.592 177.102 234.247 178.766 235.558C180.429 236.868 181.261 238.719 181.261 241.112C181.261 242.844 180.908 244.279 180.201 245.418C179.506 246.558 178.412 247.481 176.92 248.187L182.115 258.219V258.475H175.689L171.297 249.691ZM168.05 245.06H171.844C172.984 245.06 173.838 244.763 174.408 244.171C174.989 243.567 175.279 242.73 175.279 241.659C175.279 240.588 174.989 239.75 174.408 239.146C173.827 238.531 172.972 238.224 171.844 238.224H168.05V245.06ZM203.563 238.224H196.095V258.475H190.096V238.224H182.765V233.592H203.563V238.224Z" fill="#FEBA10"/>
<rect x="269.208" y="156.428" width="99.7067" height="99.6355" fill="#FEBA10"/>
<path d="M316.871 208.355H299.815V204.971L307.864 196.392C308.969 195.184 309.784 194.13 310.308 193.23C310.844 192.33 311.111 191.476 311.111 190.667C311.111 189.562 310.832 188.696 310.274 188.069C309.716 187.431 308.918 187.112 307.881 187.112C306.765 187.112 305.882 187.5 305.232 188.274C304.594 189.038 304.275 190.046 304.275 191.299H299.319C299.319 189.784 299.678 188.4 300.396 187.146C301.125 185.893 302.151 184.913 303.472 184.207C304.794 183.489 306.292 183.13 307.967 183.13C310.53 183.13 312.518 183.745 313.931 184.976C315.355 186.206 316.067 187.944 316.067 190.188C316.067 191.419 315.748 192.672 315.11 193.948C314.472 195.224 313.379 196.711 311.829 198.409L306.172 204.373H316.871V208.355ZM336.661 198.067C336.661 201.508 335.949 204.139 334.524 205.962C333.1 207.785 331.015 208.697 328.27 208.697C325.558 208.697 323.484 207.802 322.049 206.014C320.613 204.225 319.878 201.661 319.844 198.323V193.743C319.844 190.268 320.562 187.631 321.998 185.83C323.444 184.03 325.524 183.13 328.235 183.13C330.947 183.13 333.021 184.025 334.456 185.813C335.892 187.591 336.626 190.148 336.661 193.487V198.067ZM331.722 193.042C331.722 190.98 331.437 189.482 330.867 188.548C330.309 187.602 329.432 187.129 328.235 187.129C327.073 187.129 326.213 187.579 325.655 188.479C325.108 189.368 324.817 190.764 324.783 192.666V198.716C324.783 200.744 325.057 202.254 325.604 203.245C326.162 204.225 327.05 204.715 328.27 204.715C329.477 204.715 330.349 204.242 330.884 203.296C331.42 202.351 331.699 200.904 331.722 198.955V193.042ZM311.812 239.355H306.873V220.317L300.977 222.145V218.129L311.282 214.438H311.812V239.355ZM336.131 221.086C336.131 222.293 335.829 223.364 335.225 224.299C334.621 225.233 333.79 225.979 332.73 226.537C333.938 227.119 334.895 227.922 335.601 228.947C336.307 229.961 336.661 231.157 336.661 232.536C336.661 234.746 335.909 236.495 334.405 237.783C332.901 239.059 330.856 239.697 328.27 239.697C325.683 239.697 323.632 239.053 322.117 237.766C320.602 236.478 319.844 234.735 319.844 232.536C319.844 231.157 320.197 229.955 320.904 228.93C321.61 227.905 322.562 227.107 323.758 226.537C322.698 225.979 321.867 225.233 321.263 224.299C320.67 223.364 320.374 222.293 320.374 221.086C320.374 218.967 321.08 217.28 322.493 216.027C323.906 214.763 325.826 214.13 328.252 214.13C330.668 214.13 332.582 214.757 333.995 216.01C335.419 217.252 336.131 218.944 336.131 221.086ZM331.705 232.177C331.705 231.095 331.391 230.229 330.765 229.579C330.138 228.93 329.295 228.605 328.235 228.605C327.187 228.605 326.35 228.93 325.723 229.579C325.097 230.217 324.783 231.083 324.783 232.177C324.783 233.237 325.091 234.091 325.706 234.741C326.321 235.39 327.176 235.715 328.27 235.715C329.34 235.715 330.178 235.401 330.782 234.775C331.397 234.148 331.705 233.282 331.705 232.177ZM331.192 221.325C331.192 220.357 330.936 219.582 330.423 219.001C329.91 218.408 329.187 218.112 328.252 218.112C327.33 218.112 326.612 218.397 326.099 218.967C325.586 219.536 325.33 220.322 325.33 221.325C325.33 222.316 325.586 223.114 326.099 223.718C326.612 224.321 327.335 224.623 328.27 224.623C329.204 224.623 329.922 224.321 330.423 223.718C330.936 223.114 331.192 222.316 331.192 221.325Z" fill="#073731"/>
</svg>
