<svg width="255" height="205" viewBox="0 0 255 205" fill="none" xmlns="http://www.w3.org/2000/svg">
<path d="M21.1877 29.1434L27.1701 25.158L30.6598 18.9307L31.9062 9.21628L37.6393 3.48724H48.1085L56.8328 2.2418L60.5718 0L73.2845 5.23086H79.0176L85.4985 12.9526L89.7361 17.9344L93.9736 18.9307L96.9648 16.938H100.953L109.677 10.7108L116.158 12.9526L120.645 16.938L125.631 18.9307L138.094 22.418L149.311 23.6634L151.804 18.9307L154.795 15.6926L162.023 12.9526L171.496 10.7108H179.223H186.202L194.677 12.9526L200.909 16.938H209.633L213.123 12.9526L219.106 7.97084H225.337L228.079 4.4836H233.563L238.299 10.7108L242.537 16.938L245.279 25.9052V32.1324L252.258 33.3779L255 36.616V41.5978L253.754 45.3341L255 47.3269V50.8141L250.015 53.305L245.279 56.7922L240.792 55.2977L236.056 62.2722L230.073 73.4812V78.4629L228.079 80.7047H225.337L224.091 84.9392L225.337 87.6792L224.091 92.1628L216.862 95.8992V99.3864L215.865 108.603L211.877 112.837L206.642 114.83L202.903 116.823V121.804V126.288L198.167 131.519V136.252L192.434 140.984L196.422 144.97L192.434 146.215L188.446 150.45L189.692 152.193L186.202 158.42H179.472L175.484 150.45L168.006 144.97L166.261 148.706L160.528 150.45L159.282 146.215L153.798 150.45L149.311 156.428L143.827 159.915L139.839 163.9L131.613 171.373V185.073L124.633 194.04L118.9 188.809L120.894 198.026H114.413L96.4663 202.011L75.7771 205L68.5484 202.011L63.0645 197.029L59.0762 186.069L52.346 173.864L45.8651 166.391L39.8827 161.409L34.1496 159.666H30.6598L20.9384 158.67L9.97067 159.666H1.74487V154.435L1.99413 150.45V146.464V138.493L3.24047 136.252L0 127.533L1.99413 119.563L1.74487 116.075L1.99413 102.874L9.97067 100.632V93.9064L14.7067 86.932L22.434 80.4557L19.6921 76.9684L21.1877 73.4812H23.4311V65.7594L22.434 59.2831L17.1994 51.8105L19.6921 47.5759L22.434 45.3341L19.6921 43.8396L21.1877 37.3633V29.1434Z" fill="#073731"/>
<path d="M42.4272 80.4016H39.7671V87.7375H38.2964V80.4016H35.6597V79.2063H42.4272V80.4016ZM44.8179 82.0891C45.2827 81.55 45.8706 81.2805 46.5815 81.2805C47.9331 81.2805 48.6187 82.052 48.6382 83.595V87.7375H47.2144V83.6477C47.2144 83.2102 47.1187 82.9016 46.9272 82.7219C46.7397 82.5383 46.4624 82.4465 46.0952 82.4465C45.5249 82.4465 45.0991 82.7004 44.8179 83.2083V87.7375H43.394V78.7375H44.8179V82.0891ZM52.8745 87.8547C51.9722 87.8547 51.2397 87.5715 50.6772 87.0051C50.1187 86.4348 49.8394 85.677 49.8394 84.7317V84.5559C49.8394 83.9231 49.9604 83.3586 50.2026 82.8625C50.4487 82.3625 50.7925 81.9739 51.2339 81.6965C51.6753 81.4192 52.1675 81.2805 52.7104 81.2805C53.5737 81.2805 54.2397 81.5559 54.7085 82.1067C55.1812 82.6575 55.4175 83.4368 55.4175 84.4446V85.0188H51.2749C51.3179 85.5422 51.4917 85.9563 51.7964 86.261C52.105 86.5657 52.4917 86.718 52.9565 86.718C53.6089 86.718 54.1401 86.4543 54.5503 85.927L55.3179 86.6594C55.064 87.0383 54.7241 87.3333 54.2983 87.5442C53.8765 87.7512 53.4019 87.8547 52.8745 87.8547ZM52.7046 82.4231C52.314 82.4231 51.9976 82.5598 51.7554 82.8333C51.5171 83.1067 51.3647 83.4875 51.2983 83.9758H54.0112V83.8704C53.98 83.3938 53.853 83.0344 53.6304 82.7922C53.4077 82.5461 53.0991 82.4231 52.7046 82.4231ZM66.4214 87.7375H64.939L61.1362 81.6848V87.7375H59.6538V79.2063H61.1362L64.9507 85.2825V79.2063H66.4214V87.7375ZM69.5503 87.7375H68.1265V81.3977H69.5503V87.7375ZM68.0386 79.7512C68.0386 79.5325 68.1069 79.3508 68.2437 79.2063C68.3843 79.0618 68.5835 78.9895 68.8413 78.9895C69.0991 78.9895 69.2983 79.0618 69.439 79.2063C69.5796 79.3508 69.6499 79.5325 69.6499 79.7512C69.6499 79.9661 69.5796 80.1458 69.439 80.2903C69.2983 80.4309 69.0991 80.5012 68.8413 80.5012C68.5835 80.5012 68.3843 80.4309 68.2437 80.2903C68.1069 80.1458 68.0386 79.9661 68.0386 79.7512ZM70.8569 84.5208C70.8569 83.5364 71.0874 82.7512 71.5483 82.1653C72.0132 81.5754 72.6284 81.2805 73.394 81.2805C74.1167 81.2805 74.6851 81.5325 75.0991 82.0364L75.1636 81.3977H76.4468V87.5442C76.4468 88.3762 76.187 89.0325 75.6675 89.5129C75.1519 89.9934 74.4546 90.2336 73.5757 90.2336C73.1108 90.2336 72.6558 90.136 72.2104 89.9407C71.769 89.7493 71.4331 89.4973 71.2026 89.1848L71.8765 88.3293C72.314 88.8489 72.853 89.1086 73.4937 89.1086C73.9663 89.1086 74.3394 88.9797 74.6128 88.7219C74.8862 88.468 75.0229 88.093 75.0229 87.5969V87.1692C74.6128 87.6262 74.0659 87.8547 73.3823 87.8547C72.6401 87.8547 72.0327 87.5598 71.5601 86.97C71.0913 86.3801 70.8569 85.5637 70.8569 84.5208ZM72.2749 84.6438C72.2749 85.2805 72.4038 85.7825 72.6616 86.1497C72.9233 86.5129 73.2847 86.6946 73.7456 86.6946C74.3198 86.6946 74.7456 86.4485 75.0229 85.9563V83.1672C74.7534 82.6868 74.3315 82.4465 73.7573 82.4465C73.2886 82.4465 72.9233 82.6321 72.6616 83.0032C72.4038 83.3743 72.2749 83.9211 72.2749 84.6438ZM80.7065 87.8547C79.8042 87.8547 79.0718 87.5715 78.5093 87.0051C77.9507 86.4348 77.6714 85.677 77.6714 84.7317V84.5559C77.6714 83.9231 77.7925 83.3586 78.0347 82.8625C78.2808 82.3625 78.6245 81.9739 79.0659 81.6965C79.5073 81.4192 79.9995 81.2805 80.5425 81.2805C81.4058 81.2805 82.0718 81.5559 82.5405 82.1067C83.0132 82.6575 83.2495 83.4368 83.2495 84.4446V85.0188H79.1069C79.1499 85.5422 79.3237 85.9563 79.6284 86.261C79.937 86.5657 80.3237 86.718 80.7886 86.718C81.4409 86.718 81.9722 86.4543 82.3823 85.927L83.1499 86.6594C82.896 87.0383 82.5562 87.3333 82.1304 87.5442C81.7085 87.7512 81.2339 87.8547 80.7065 87.8547ZM80.5366 82.4231C80.146 82.4231 79.8296 82.5598 79.5874 82.8333C79.3491 83.1067 79.1968 83.4875 79.1304 83.9758H81.8433V83.8704C81.812 83.3938 81.6851 83.0344 81.4624 82.7922C81.2397 82.5461 80.9312 82.4231 80.5366 82.4231ZM87.6792 82.6985C87.4917 82.6672 87.2983 82.6516 87.0991 82.6516C86.4468 82.6516 86.0073 82.9016 85.7808 83.4016V87.7375H84.3569V81.3977H85.7163L85.7515 82.1067C86.0952 81.5559 86.5718 81.2805 87.1812 81.2805C87.3843 81.2805 87.5522 81.3079 87.6851 81.3625L87.6792 82.6985ZM90.0933 87.7375H88.6694V81.3977H90.0933V87.7375ZM88.5815 79.7512C88.5815 79.5325 88.6499 79.3508 88.7866 79.2063C88.9272 79.0618 89.1265 78.9895 89.3843 78.9895C89.6421 78.9895 89.8413 79.0618 89.9819 79.2063C90.1226 79.3508 90.1929 79.5325 90.1929 79.7512C90.1929 79.9661 90.1226 80.1458 89.9819 80.2903C89.8413 80.4309 89.6421 80.5012 89.3843 80.5012C89.1265 80.5012 88.9272 80.4309 88.7866 80.2903C88.6499 80.1458 88.5815 79.9661 88.5815 79.7512ZM95.437 87.7375C95.3745 87.6165 95.3198 87.4192 95.2729 87.1458C94.8198 87.6184 94.2651 87.8547 93.6089 87.8547C92.9722 87.8547 92.4526 87.6731 92.0503 87.3098C91.6479 86.9465 91.4468 86.4973 91.4468 85.9622C91.4468 85.2864 91.6968 84.7688 92.1968 84.4094C92.7007 84.0461 93.4194 83.8645 94.353 83.8645H95.2261V83.4485C95.2261 83.1204 95.1343 82.8586 94.9507 82.6633C94.7671 82.4641 94.4878 82.3645 94.1128 82.3645C93.7886 82.3645 93.5229 82.4465 93.3159 82.6106C93.1089 82.7708 93.0054 82.9758 93.0054 83.2258H91.5815C91.5815 82.8782 91.6968 82.554 91.9272 82.2532C92.1577 81.9485 92.4702 81.7102 92.8647 81.5383C93.2632 81.3665 93.7065 81.2805 94.1948 81.2805C94.937 81.2805 95.5288 81.468 95.9702 81.843C96.4116 82.2141 96.6382 82.7375 96.6499 83.4133V86.2727C96.6499 86.843 96.73 87.2981 96.8901 87.6379V87.7375H95.437ZM93.8726 86.7122C94.1538 86.7122 94.4175 86.6438 94.6636 86.5071C94.9136 86.3704 95.1011 86.1868 95.2261 85.9563V84.761H94.4585C93.9312 84.761 93.5347 84.8528 93.269 85.0364C93.0034 85.22 92.8706 85.4797 92.8706 85.8157C92.8706 86.0891 92.9604 86.3079 93.1401 86.4719C93.3237 86.6321 93.5679 86.7122 93.8726 86.7122ZM99.4624 81.3977L99.5034 82.1301C99.9722 81.5637 100.587 81.2805 101.349 81.2805C102.669 81.2805 103.341 82.0364 103.365 83.5481V87.7375H101.941V83.6301C101.941 83.2278 101.853 82.9309 101.677 82.7395C101.505 82.5442 101.222 82.4465 100.828 82.4465C100.253 82.4465 99.8257 82.7063 99.5444 83.2258V87.7375H98.1206V81.3977H99.4624ZM46.5215 106.699C46.0601 107.212 45.385 107.625 44.4963 107.938C43.6077 108.252 42.6335 108.408 41.574 108.408C39.9447 108.408 38.6431 107.91 37.6689 106.913C36.6948 105.916 36.1736 104.529 36.1052 102.752L36.0967 101.675C36.0967 100.45 36.3132 99.3822 36.7461 98.4707C37.179 97.5535 37.7971 96.85 38.6003 96.3601C39.4093 95.8645 40.3435 95.6167 41.4031 95.6167C42.9526 95.6167 44.1545 95.9727 45.009 96.6848C45.8692 97.3912 46.3705 98.4479 46.5129 99.855H43.6248C43.5222 99.16 43.3 98.6644 42.9583 98.3682C42.6165 98.0719 42.1322 97.9238 41.5056 97.9238C40.7537 97.9238 40.1726 98.2428 39.7625 98.8809C39.3523 99.5189 39.1444 100.43 39.1387 101.615V102.367C39.1387 103.609 39.3494 104.543 39.771 105.17C40.1982 105.791 40.8676 106.101 41.7791 106.101C42.5595 106.101 43.1405 105.928 43.5222 105.58V103.649H41.4373V101.59H46.5215V106.699ZM52.8875 103.845H51.2639V108.238H48.2646V95.7961H53.1609C54.6363 95.7961 55.7899 96.1237 56.6216 96.7788C57.4533 97.4339 57.8691 98.3596 57.8691 99.5559C57.8691 100.422 57.6925 101.14 57.3394 101.709C56.9919 102.279 56.445 102.74 55.6987 103.094L58.2964 108.109V108.238H55.0835L52.8875 103.845ZM51.2639 101.53H53.1609C53.7306 101.53 54.1578 101.382 54.4426 101.085C54.7332 100.784 54.8784 100.365 54.8784 99.8293C54.8784 99.2939 54.7332 98.8752 54.4426 98.5732C54.1521 98.2656 53.7249 98.1118 53.1609 98.1118H51.2639V101.53ZM66.7473 105.913H62.6372L61.9194 108.238H58.7151L63.2781 95.7961H66.0979L70.6951 108.238H67.4736L66.7473 105.913ZM63.355 103.598H66.0295L64.688 99.2825L63.355 103.598ZM71.6094 108.238V95.7961H75.6169C76.7164 95.7961 77.7048 96.0468 78.582 96.5481C79.4593 97.0437 80.1429 97.7472 80.6328 98.6587C81.1284 99.5645 81.3791 100.581 81.3848 101.709V102.282C81.3848 103.421 81.1427 104.444 80.6584 105.349C80.1799 106.249 79.502 106.956 78.6248 107.469C77.7532 107.976 76.7791 108.232 75.7024 108.238H71.6094ZM74.6086 98.1118V105.93H75.6511C76.5113 105.93 77.1721 105.626 77.6335 105.016C78.095 104.401 78.3257 103.489 78.3257 102.282V101.743C78.3257 100.541 78.095 99.6357 77.6335 99.0261C77.1721 98.4166 76.4999 98.1118 75.6169 98.1118H74.6086ZM92.6812 95.7961V103.939C92.6812 104.862 92.4846 105.663 92.0916 106.341C91.6985 107.013 91.1345 107.525 90.3997 107.879C89.6648 108.232 88.7961 108.408 87.7935 108.408C86.2782 108.408 85.0847 108.015 84.2131 107.229C83.3416 106.443 82.8972 105.366 82.8801 103.999V95.7961H85.8965V104.059C85.9307 105.421 86.563 106.101 87.7935 106.101C88.4144 106.101 88.8844 105.93 89.2034 105.589C89.5224 105.247 89.6819 104.691 89.6819 103.922V95.7961H92.6812ZM101.44 105.913H97.3296L96.6118 108.238H93.4075L97.9705 95.7961H100.79L105.387 108.238H102.166L101.44 105.913ZM98.0474 103.598H100.722L99.3804 99.2825L98.0474 103.598ZM115.043 98.1118H111.309V108.238H108.31V98.1118H104.644V95.7961H115.043V98.1118ZM124.032 102.965H119.316V105.93H124.887V108.238H116.316V95.7961H124.904V98.1118H119.316V100.735H124.032V102.965ZM40.9587 124.845H39.3352V129.238H36.3359V116.796H41.2322C42.7076 116.796 43.8612 117.124 44.6929 117.779C45.5246 118.434 45.9404 119.36 45.9404 120.556C45.9404 121.422 45.7638 122.14 45.4106 122.709C45.0632 123.279 44.5163 123.74 43.77 124.094L46.3677 129.109V129.238H43.1548L40.9587 124.845ZM39.3352 122.53H41.2322C41.8018 122.53 42.2291 122.382 42.5139 122.085C42.8044 121.784 42.9497 121.365 42.9497 120.829C42.9497 120.294 42.8044 119.875 42.5139 119.573C42.2234 119.266 41.7961 119.112 41.2322 119.112H39.3352V122.53ZM55.468 123.965H50.7512V126.93H56.3225V129.238H47.752V116.796H56.3396V119.112H50.7512V121.735H55.468V123.965ZM60.5437 125.016V129.238H57.5444V116.796H62.509C63.4604 116.796 64.3006 116.973 65.0298 117.326C65.7646 117.673 66.3315 118.172 66.7302 118.821C67.1347 119.465 67.3369 120.197 67.3369 121.017C67.3369 122.231 66.9011 123.202 66.0295 123.931C65.1637 124.655 63.9731 125.016 62.4578 125.016H60.5437ZM60.5437 122.701H62.509C63.0901 122.701 63.5316 122.555 63.8335 122.265C64.1411 121.974 64.2949 121.564 64.2949 121.034C64.2949 120.453 64.1383 119.989 63.825 119.642C63.5116 119.294 63.0844 119.118 62.5432 119.112H60.5437V122.701ZM79.4792 123.273C79.4792 124.487 79.2542 125.56 78.8042 126.495C78.3542 127.429 77.7133 128.149 76.8816 128.656C76.0556 129.158 75.1128 129.408 74.0532 129.408C72.9937 129.408 72.0537 129.166 71.2334 128.682C70.4131 128.192 69.7722 127.494 69.3108 126.589C68.8551 125.683 68.6158 124.643 68.593 123.47V122.769C68.593 121.55 68.8152 120.476 69.2595 119.548C69.7096 118.613 70.3504 117.893 71.1821 117.386C72.0195 116.879 72.9709 116.625 74.0361 116.625C75.09 116.625 76.0299 116.876 76.856 117.377C77.682 117.878 78.3228 118.593 78.7786 119.522C79.24 120.445 79.4736 121.504 79.4792 122.701V123.273ZM76.4287 122.752C76.4287 121.516 76.2208 120.579 75.8049 119.941C75.3948 119.297 74.8052 118.975 74.0361 118.975C72.5322 118.975 71.7375 120.103 71.6521 122.359L71.6436 123.273C71.6436 124.492 71.8458 125.429 72.2502 126.084C72.6547 126.74 73.2557 127.067 74.0532 127.067C74.8109 127.067 75.3948 126.745 75.8049 126.102C76.2151 125.458 76.423 124.532 76.4287 123.324V122.752ZM85.6487 124.845H84.0251V129.238H81.0259V116.796H85.9221C87.3975 116.796 88.5511 117.124 89.3828 117.779C90.2145 118.434 90.6304 119.36 90.6304 120.556C90.6304 121.422 90.4538 122.14 90.1006 122.709C89.7531 123.279 89.2062 123.74 88.46 124.094L91.0576 129.109V129.238H87.8447L85.6487 124.845ZM84.0251 122.53H85.9221C86.4918 122.53 86.919 122.382 87.2039 122.085C87.4944 121.784 87.6396 121.365 87.6396 120.829C87.6396 120.294 87.4944 119.875 87.2039 119.573C86.9133 119.266 86.4861 119.112 85.9221 119.112H84.0251V122.53ZM101.781 119.112H98.0474V129.238H95.0481V119.112H91.3823V116.796H101.781V119.112Z" fill="#FEBA10"/>
<rect x="134.604" y="78.2139" width="49.8534" height="49.8177" fill="#FEBA10"/>
<path d="M158.435 104.177H149.907V102.486L153.932 98.196C154.485 97.5921 154.892 97.0652 155.154 96.6152C155.422 96.1651 155.556 95.7379 155.556 95.3334C155.556 94.7809 155.416 94.3479 155.137 94.0346C154.858 93.7156 154.459 93.5561 153.941 93.5561C153.382 93.5561 152.941 93.7498 152.616 94.1371C152.297 94.5188 152.138 95.023 152.138 95.6496H149.66C149.66 94.8919 149.839 94.1998 150.198 93.5732C150.563 92.9466 151.075 92.4566 151.736 92.1035C152.397 91.7446 153.146 91.5651 153.983 91.5651C155.265 91.5651 156.259 91.8727 156.966 92.488C157.678 93.1032 158.034 93.9719 158.034 95.0942C158.034 95.7094 157.874 96.336 157.555 96.9741C157.236 97.6121 156.689 98.3555 155.915 99.2043L153.086 102.186H158.435V104.177ZM168.33 99.0334C168.33 100.754 167.974 102.07 167.262 102.981C166.55 103.893 165.508 104.348 164.135 104.348C162.779 104.348 161.742 103.901 161.024 103.007C160.307 102.112 159.939 100.831 159.922 99.1616V96.8715C159.922 95.1341 160.281 93.8153 160.999 92.9152C161.722 92.0152 162.762 91.5651 164.118 91.5651C165.473 91.5651 166.51 92.0123 167.228 92.9067C167.946 93.7953 168.313 95.0742 168.33 96.7433V99.0334ZM165.861 96.5212C165.861 95.4901 165.718 94.741 165.434 94.2739C165.154 93.801 164.716 93.5646 164.118 93.5646C163.537 93.5646 163.107 93.7897 162.827 94.2397C162.554 94.684 162.409 95.3819 162.392 96.3332V99.3581C162.392 100.372 162.528 101.127 162.802 101.622C163.081 102.112 163.525 102.357 164.135 102.357C164.739 102.357 165.174 102.121 165.442 101.648C165.71 101.175 165.849 100.452 165.861 99.4777V96.5212ZM155.906 119.677H153.437V110.158L150.489 111.073V109.065L155.641 107.219H155.906V119.677ZM168.065 110.543C168.065 111.147 167.914 111.682 167.613 112.149C167.311 112.616 166.895 112.99 166.365 113.269C166.969 113.559 167.447 113.961 167.801 114.474C168.154 114.981 168.33 115.579 168.33 116.268C168.33 117.373 167.954 118.248 167.202 118.891C166.45 119.529 165.428 119.848 164.135 119.848C162.842 119.848 161.816 119.526 161.059 118.883C160.301 118.239 159.922 117.367 159.922 116.268C159.922 115.579 160.099 114.978 160.452 114.465C160.805 113.952 161.281 113.554 161.879 113.269C161.349 112.99 160.933 112.616 160.631 112.149C160.335 111.682 160.187 111.147 160.187 110.543C160.187 109.483 160.54 108.64 161.247 108.014C161.953 107.381 162.913 107.065 164.126 107.065C165.334 107.065 166.291 107.378 166.997 108.005C167.709 108.626 168.065 109.472 168.065 110.543ZM165.852 116.089C165.852 115.547 165.696 115.114 165.382 114.79C165.069 114.465 164.647 114.303 164.118 114.303C163.594 114.303 163.175 114.465 162.862 114.79C162.548 115.109 162.392 115.542 162.392 116.089C162.392 116.618 162.545 117.046 162.853 117.37C163.161 117.695 163.588 117.857 164.135 117.857C164.67 117.857 165.089 117.701 165.391 117.387C165.698 117.074 165.852 116.641 165.852 116.089ZM165.596 110.663C165.596 110.178 165.468 109.791 165.211 109.5C164.955 109.204 164.593 109.056 164.126 109.056C163.665 109.056 163.306 109.199 163.05 109.483C162.793 109.768 162.665 110.161 162.665 110.663C162.665 111.158 162.793 111.557 163.05 111.859C163.306 112.161 163.668 112.312 164.135 112.312C164.602 112.312 164.961 112.161 165.211 111.859C165.468 111.557 165.596 111.158 165.596 110.663Z" fill="#073731"/>
</svg>
