<svg width="383" height="308" viewBox="0 0 383 308" fill="none" xmlns="http://www.w3.org/2000/svg">
<path d="M31.7815 43.7151L40.7551 37.7369L45.9897 28.3961L47.8592 13.8244L56.4589 5.23086H72.1628L85.2493 3.3627L90.8578 0L109.927 7.84629H118.526L128.248 19.4289L134.604 26.9016L140.96 28.3961L145.447 25.407H151.43L164.516 16.0662L174.238 19.4289L180.968 25.407L188.446 28.3961L207.141 33.627L223.966 35.4951L227.705 28.3961L232.192 23.5389L243.035 19.4289L257.243 16.0662H268.834H279.304L292.016 19.4289L301.364 25.407H314.45L319.685 19.4289L328.658 11.9563H338.006L342.119 6.7254H350.345L357.449 16.0662L363.805 25.407L367.918 38.8578V48.1987L378.387 50.0668L382.5 54.9241V62.3967L380.63 68.0012L382.5 70.9903V76.2211L375.022 79.9575L367.918 85.1883L361.188 82.9465L354.084 93.4083L345.11 110.222V117.694L342.119 121.057H338.006L336.136 127.409L338.006 131.519L336.136 138.244L325.293 143.849V149.08L323.798 162.904L317.815 169.256L309.963 172.245L304.355 175.234V182.707V189.432L297.251 197.278V204.377L288.651 211.476L294.633 217.454L288.651 219.323L282.669 225.674L284.538 228.29L279.304 237.631H269.208L263.226 225.674L252.009 217.454L249.392 223.059L240.792 225.674L238.922 219.323L230.696 225.674L223.966 234.642L215.74 239.872L209.758 245.851L197.419 257.06V277.609L186.95 291.06L178.35 283.214L181.342 297.038H171.62L144.699 303.016L113.666 307.5L102.823 303.016L94.5968 295.544L88.6144 279.104L78.5191 260.796L68.7977 249.587L59.824 242.114L51.2243 239.499H45.9897L31.4076 238.004L14.956 239.499H2.6173V231.652L2.9912 225.674V219.696V207.74L4.8607 204.377L0 191.3L2.9912 179.344L2.6173 174.113L2.9912 154.31L14.956 150.948V140.86L22.0601 130.398L33.651 120.683L29.5381 115.453L31.7815 110.222H35.1466V98.6391L33.651 88.9247L25.7991 77.7157L29.5381 71.3639L33.651 68.0012L29.5381 65.7594L31.7815 56.045V43.7151Z" fill="#073731"/>
<path d="M63.6409 120.602H59.6506V131.606H57.4446V120.602H53.4895V118.809H63.6409V120.602ZM67.2268 123.134C67.9241 122.325 68.8059 121.921 69.8723 121.921C71.8997 121.921 72.928 123.078 72.9573 125.392V131.606H70.8215V125.472C70.8215 124.815 70.678 124.352 70.3909 124.083C70.1096 123.807 69.6936 123.67 69.1428 123.67C68.2874 123.67 67.6487 124.051 67.2268 124.812V131.606H65.0911V118.106H67.2268V123.134ZM79.3118 131.782C77.9583 131.782 76.8596 131.357 76.0159 130.508C75.178 129.652 74.759 128.516 74.759 127.098V126.834C74.759 125.885 74.9407 125.038 75.304 124.294C75.6731 123.544 76.1887 122.961 76.8508 122.545C77.5129 122.129 78.2512 121.921 79.0657 121.921C80.3606 121.921 81.3596 122.334 82.0627 123.16C82.7717 123.986 83.1262 125.155 83.1262 126.667V127.528H76.9124C76.9768 128.313 77.2375 128.934 77.6946 129.391C78.1575 129.849 78.7375 130.077 79.4348 130.077C80.4133 130.077 81.2102 129.682 81.8254 128.891L82.9768 129.989C82.5959 130.557 82.0862 131 81.4475 131.316C80.8147 131.627 80.1028 131.782 79.3118 131.782ZM79.0569 123.635C78.4709 123.635 77.9963 123.84 77.6331 124.25C77.2756 124.66 77.0471 125.231 76.9475 125.964H81.0168V125.806C80.97 125.091 80.7795 124.552 80.4456 124.188C80.1116 123.819 79.6487 123.635 79.0569 123.635ZM99.6321 131.606H97.4084L91.7043 122.527V131.606H89.4807V118.809H91.7043L97.426 127.924V118.809H99.6321V131.606ZM104.325 131.606H102.19V122.097H104.325V131.606ZM102.058 119.627C102.058 119.299 102.16 119.026 102.365 118.809C102.576 118.593 102.875 118.484 103.262 118.484C103.649 118.484 103.948 118.593 104.158 118.809C104.369 119.026 104.475 119.299 104.475 119.627C104.475 119.949 104.369 120.219 104.158 120.435C103.948 120.646 103.649 120.752 103.262 120.752C102.875 120.752 102.576 120.646 102.365 120.435C102.16 120.219 102.058 119.949 102.058 119.627ZM106.285 126.781C106.285 125.305 106.631 124.127 107.323 123.248C108.02 122.363 108.943 121.921 110.091 121.921C111.175 121.921 112.028 122.299 112.649 123.055L112.745 122.097H114.67V131.316C114.67 132.564 114.281 133.549 113.501 134.269C112.728 134.99 111.682 135.35 110.364 135.35C109.666 135.35 108.984 135.204 108.316 134.911C107.654 134.624 107.15 134.246 106.804 133.777L107.815 132.494C108.471 133.273 109.28 133.663 110.24 133.663C110.949 133.663 111.509 133.47 111.919 133.083C112.329 132.702 112.534 132.14 112.534 131.395V130.754C111.919 131.439 111.099 131.782 110.073 131.782C108.96 131.782 108.049 131.34 107.34 130.455C106.637 129.57 106.285 128.346 106.285 126.781ZM108.412 126.966C108.412 127.921 108.606 128.674 108.992 129.224C109.385 129.769 109.927 130.042 110.618 130.042C111.48 130.042 112.118 129.673 112.534 128.934V124.751C112.13 124.03 111.497 123.67 110.636 123.67C109.933 123.67 109.385 123.948 108.992 124.505C108.606 125.061 108.412 125.882 108.412 126.966ZM121.06 131.782C119.706 131.782 118.608 131.357 117.764 130.508C116.926 129.652 116.507 128.516 116.507 127.098V126.834C116.507 125.885 116.689 125.038 117.052 124.294C117.421 123.544 117.937 122.961 118.599 122.545C119.261 122.129 119.999 121.921 120.814 121.921C122.109 121.921 123.108 122.334 123.811 123.16C124.52 123.986 124.874 125.155 124.874 126.667V127.528H118.66C118.725 128.313 118.986 128.934 119.443 129.391C119.906 129.849 120.486 130.077 121.183 130.077C122.161 130.077 122.958 129.682 123.573 128.891L124.725 129.989C124.344 130.557 123.834 131 123.196 131.316C122.563 131.627 121.851 131.782 121.06 131.782ZM120.805 123.635C120.219 123.635 119.744 123.84 119.381 124.25C119.024 124.66 118.795 125.231 118.696 125.964H122.765V125.806C122.718 125.091 122.528 124.552 122.194 124.188C121.86 123.819 121.397 123.635 120.805 123.635ZM131.519 124.048C131.238 124.001 130.948 123.977 130.649 123.977C129.67 123.977 129.011 124.352 128.671 125.102V131.606H126.535V122.097H128.574L128.627 123.16C129.143 122.334 129.858 121.921 130.772 121.921C131.076 121.921 131.328 121.962 131.528 122.044L131.519 124.048ZM135.14 131.606H133.004V122.097H135.14V131.606ZM132.872 119.627C132.872 119.299 132.975 119.026 133.18 118.809C133.391 118.593 133.69 118.484 134.076 118.484C134.463 118.484 134.762 118.593 134.973 118.809C135.184 119.026 135.289 119.299 135.289 119.627C135.289 119.949 135.184 120.219 134.973 120.435C134.762 120.646 134.463 120.752 134.076 120.752C133.69 120.752 133.391 120.646 133.18 120.435C132.975 120.219 132.872 119.949 132.872 119.627ZM143.156 131.606C143.062 131.425 142.98 131.129 142.909 130.719C142.23 131.428 141.398 131.782 140.413 131.782C139.458 131.782 138.679 131.51 138.075 130.965C137.472 130.42 137.17 129.746 137.17 128.943C137.17 127.93 137.545 127.153 138.295 126.614C139.051 126.069 140.129 125.797 141.53 125.797H142.839V125.173C142.839 124.681 142.701 124.288 142.426 123.995C142.151 123.696 141.732 123.547 141.169 123.547C140.683 123.547 140.284 123.67 139.974 123.916C139.663 124.156 139.508 124.464 139.508 124.839H137.372C137.372 124.317 137.545 123.831 137.891 123.38C138.237 122.923 138.705 122.565 139.297 122.307C139.895 122.05 140.56 121.921 141.292 121.921C142.406 121.921 143.293 122.202 143.955 122.765C144.617 123.321 144.957 124.106 144.975 125.12V129.409C144.975 130.265 145.095 130.947 145.335 131.457V131.606H143.156ZM140.809 130.068C141.231 130.068 141.626 129.966 141.995 129.761C142.37 129.556 142.652 129.28 142.839 128.934V127.141H141.688C140.897 127.141 140.302 127.279 139.904 127.555C139.505 127.83 139.306 128.22 139.306 128.724C139.306 129.134 139.441 129.462 139.71 129.708C139.986 129.948 140.352 130.068 140.809 130.068ZM149.194 122.097L149.255 123.195C149.958 122.346 150.881 121.921 152.024 121.921C154.004 121.921 155.012 123.055 155.047 125.322V131.606H152.911V125.445C152.911 124.842 152.78 124.396 152.516 124.109C152.258 123.816 151.833 123.67 151.241 123.67C150.38 123.67 149.739 124.059 149.317 124.839V131.606H147.181V122.097H149.194ZM69.7822 160.049C69.0901 160.818 68.0775 161.438 66.7445 161.908C65.4115 162.378 63.9503 162.613 62.361 162.613C59.9171 162.613 57.9646 161.865 56.5034 160.37C55.0422 158.874 54.2604 156.794 54.1578 154.128L54.145 152.513C54.145 150.675 54.4697 149.073 55.1191 147.706C55.7686 146.33 56.6957 145.275 57.9005 144.54C59.1139 143.797 60.5153 143.425 62.1046 143.425C64.4288 143.425 66.2318 143.959 67.5135 145.027C68.8038 146.087 69.5558 147.672 69.7694 149.782H65.4371C65.2833 148.74 64.9501 147.997 64.4374 147.552C63.9247 147.108 63.1984 146.886 62.2584 146.886C61.1305 146.886 60.2589 147.364 59.6437 148.321C59.0284 149.278 58.7166 150.646 58.708 152.423V153.551C58.708 155.414 59.0242 156.815 59.6565 157.755C60.2974 158.686 61.3014 159.152 62.6686 159.152C63.8392 159.152 64.7108 158.891 65.2833 158.37V155.473H62.1559V152.384H69.7822V160.049ZM79.3312 155.768H76.8959V162.356H72.397V143.694H79.7413C81.9545 143.694 83.6848 144.186 84.9324 145.168C86.1799 146.151 86.8037 147.539 86.8037 149.334C86.8037 150.633 86.5388 151.709 86.009 152.564C85.4878 153.418 84.6675 154.11 83.5481 154.64L87.4446 162.164V162.356H82.6252L79.3312 155.768ZM76.8959 152.295H79.7413C80.5958 152.295 81.2367 152.073 81.6639 151.628C82.0997 151.175 82.3176 150.547 82.3176 149.744C82.3176 148.941 82.0997 148.313 81.6639 147.86C81.2281 147.398 80.5873 147.168 79.7413 147.168H76.8959V152.295ZM100.121 158.87H93.9558L92.8792 162.356H88.0726L94.9171 143.694H99.1469L106.043 162.356H101.21L100.121 158.87ZM95.0325 155.396H99.0443L97.032 148.924L95.0325 155.396ZM107.414 162.356V143.694H113.425C115.075 143.694 116.557 144.07 117.873 144.822C119.189 145.566 120.214 146.621 120.949 147.988C121.693 149.347 122.069 150.872 122.077 152.564V153.423C122.077 155.132 121.714 156.665 120.988 158.024C120.27 159.374 119.253 160.434 117.937 161.203C116.63 161.963 115.169 162.348 113.554 162.356H107.414ZM111.913 147.168V158.896H113.477C114.767 158.896 115.758 158.438 116.45 157.524C117.142 156.601 117.489 155.234 117.489 153.423V152.615C117.489 150.812 117.142 149.453 116.45 148.539C115.758 147.625 114.75 147.168 113.425 147.168H111.913ZM139.022 143.694V155.909C139.022 157.293 138.727 158.494 138.137 159.511C137.548 160.519 136.702 161.288 135.599 161.818C134.497 162.348 133.194 162.613 131.69 162.613C129.417 162.613 127.627 162.023 126.32 160.844C125.012 159.665 124.346 158.05 124.32 155.999V143.694H128.845V156.089C128.896 158.131 129.844 159.152 131.69 159.152C132.622 159.152 133.327 158.896 133.805 158.383C134.284 157.87 134.523 157.037 134.523 155.884V143.694H139.022ZM152.16 158.87H145.994L144.918 162.356H140.111L146.956 143.694H151.185L158.081 162.356H153.249L152.16 158.87ZM147.071 155.396H151.083L149.071 148.924L147.071 155.396ZM172.565 147.168H166.964V162.356H162.465V147.168H156.966V143.694H172.565V147.168ZM186.049 154.448H178.974V158.896H187.33V162.356H174.475V143.694H187.356V147.168H178.974V151.103H186.049V154.448ZM61.4381 187.268H59.0028V193.856H54.5039V175.194H61.8483C64.0614 175.194 65.7917 175.686 67.0393 176.668C68.2869 177.651 68.9106 179.039 68.9106 180.834C68.9106 182.133 68.6458 183.209 68.116 184.064C67.5947 184.918 66.7744 185.61 65.655 186.14L69.5515 193.664V193.856H64.7322L61.4381 187.268ZM59.0028 183.795H61.8483C62.7028 183.795 63.3436 183.573 63.7709 183.128C64.2067 182.675 64.4246 182.047 64.4246 181.244C64.4246 180.441 64.2067 179.813 63.7709 179.36C63.3351 178.898 62.6942 178.668 61.8483 178.668H59.0028V183.795ZM83.202 185.948H76.1268V190.396H84.4838V193.856H71.6279V175.194H84.5094V178.668H76.1268V182.603H83.202V185.948ZM90.8156 187.525V193.856H86.3167V175.194H93.7635C95.1906 175.194 96.4509 175.459 97.5447 175.989C98.647 176.51 99.4972 177.258 100.095 178.232C100.702 179.198 101.005 180.296 101.005 181.526C101.005 183.346 100.352 184.803 99.0443 185.897C97.7455 186.982 95.9596 187.525 93.6866 187.525H90.8156ZM90.8156 184.051H93.7635C94.6351 184.051 95.2974 183.833 95.7502 183.397C96.2117 182.962 96.4424 182.346 96.4424 181.552C96.4424 180.68 96.2074 179.984 95.7374 179.462C95.2675 178.941 94.6266 178.676 93.8148 178.668H90.8156V184.051ZM119.219 184.91C119.219 186.73 118.881 188.341 118.206 189.742C117.531 191.143 116.57 192.224 115.322 192.985C114.083 193.737 112.669 194.113 111.08 194.113C109.49 194.113 108.081 193.75 106.85 193.023C105.62 192.288 104.658 191.242 103.966 189.883C103.283 188.524 102.924 186.965 102.89 185.205V184.154C102.89 182.325 103.223 180.714 103.889 179.321C104.564 177.92 105.526 176.839 106.773 176.079C108.029 175.318 109.456 174.938 111.054 174.938C112.635 174.938 114.045 175.314 115.284 176.066C116.523 176.818 117.484 177.89 118.168 179.283C118.86 180.667 119.21 182.257 119.219 184.051V184.91ZM114.643 184.128C114.643 182.274 114.331 180.868 113.707 179.911C113.092 178.945 112.208 178.463 111.054 178.463C108.798 178.463 107.606 180.155 107.478 183.538L107.465 184.91C107.465 186.738 107.769 188.144 108.375 189.127C108.982 190.109 109.884 190.601 111.08 190.601C112.216 190.601 113.092 190.118 113.707 189.152C114.323 188.187 114.635 186.798 114.643 184.987V184.128ZM128.473 187.268H126.038V193.856H121.539V175.194H128.883C131.096 175.194 132.827 175.686 134.074 176.668C135.322 177.651 135.946 179.039 135.946 180.834C135.946 182.133 135.681 183.209 135.151 184.064C134.63 184.918 133.809 185.61 132.69 186.14L136.586 193.664V193.856H131.767L128.473 187.268ZM126.038 183.795H128.883C129.738 183.795 130.379 183.573 130.806 183.128C131.242 182.675 131.459 182.047 131.459 181.244C131.459 180.441 131.242 179.813 130.806 179.36C130.37 178.898 129.729 178.668 128.883 178.668H126.038V183.795ZM152.672 178.668H147.071V193.856H142.572V178.668H137.073V175.194H152.672V178.668Z" fill="#FEBA10"/>
<rect x="201.906" y="117.321" width="74.7801" height="74.7266" fill="#FEBA10"/>
<path d="M237.653 156.266H224.861V153.728L230.898 147.294C231.727 146.388 232.338 145.598 232.731 144.923C233.133 144.248 233.333 143.607 233.333 143C233.333 142.171 233.124 141.522 232.705 141.052C232.287 140.573 231.689 140.334 230.911 140.334C230.074 140.334 229.411 140.625 228.924 141.206C228.446 141.778 228.207 142.534 228.207 143.474H224.49C224.49 142.338 224.759 141.3 225.297 140.36C225.844 139.42 226.613 138.685 227.604 138.155C228.595 137.617 229.719 137.348 230.975 137.348C232.898 137.348 234.389 137.809 235.448 138.732C236.516 139.655 237.051 140.958 237.051 142.641C237.051 143.564 236.811 144.504 236.333 145.461C235.854 146.418 235.034 147.533 233.872 148.806L229.629 153.28H237.653V156.266ZM252.495 148.55C252.495 151.131 251.961 153.105 250.893 154.472C249.825 155.839 248.261 156.522 246.202 156.522C244.168 156.522 242.613 155.852 241.537 154.51C240.46 153.169 239.909 151.246 239.883 148.742V145.307C239.883 142.701 240.422 140.723 241.498 139.373C242.583 138.023 244.143 137.348 246.177 137.348C248.21 137.348 249.765 138.018 250.842 139.36C251.919 140.693 252.47 142.611 252.495 145.115V148.55ZM248.791 144.782C248.791 143.235 248.578 142.111 248.15 141.411C247.732 140.702 247.074 140.347 246.177 140.347C245.305 140.347 244.66 140.684 244.241 141.36C243.831 142.026 243.613 143.073 243.587 144.5V149.037C243.587 150.558 243.792 151.69 244.203 152.434C244.621 153.169 245.288 153.536 246.202 153.536C247.108 153.536 247.762 153.181 248.163 152.472C248.565 151.763 248.774 150.678 248.791 149.217V144.782ZM233.859 179.516H230.155V165.238L225.733 166.609V163.597L233.462 160.828H233.859V179.516ZM252.098 165.814C252.098 166.72 251.872 167.523 251.419 168.224C250.966 168.925 250.342 169.484 249.547 169.903C250.453 170.339 251.171 170.941 251.701 171.71C252.231 172.471 252.495 173.368 252.495 174.402C252.495 176.06 251.932 177.371 250.804 178.337C249.676 179.294 248.142 179.772 246.202 179.772C244.262 179.772 242.724 179.29 241.588 178.324C240.451 177.359 239.883 176.051 239.883 174.402C239.883 173.368 240.148 172.467 240.678 171.698C241.208 170.928 241.921 170.33 242.818 169.903C242.024 169.484 241.4 168.925 240.947 168.224C240.503 167.523 240.281 166.72 240.281 165.814C240.281 164.225 240.81 162.96 241.87 162.02C242.929 161.072 244.369 160.598 246.189 160.598C248.001 160.598 249.436 161.068 250.496 162.008C251.564 162.939 252.098 164.208 252.098 165.814ZM248.778 174.133C248.778 173.321 248.543 172.672 248.073 172.185C247.604 171.698 246.971 171.454 246.177 171.454C245.39 171.454 244.762 171.698 244.292 172.185C243.822 172.663 243.587 173.313 243.587 174.133C243.587 174.928 243.818 175.568 244.28 176.055C244.741 176.543 245.382 176.786 246.202 176.786C247.005 176.786 247.633 176.551 248.086 176.081C248.548 175.611 248.778 174.962 248.778 174.133ZM248.394 165.994C248.394 165.267 248.202 164.686 247.817 164.251C247.433 163.806 246.89 163.584 246.189 163.584C245.497 163.584 244.959 163.798 244.574 164.225C244.19 164.652 243.998 165.242 243.998 165.994C243.998 166.737 244.19 167.335 244.574 167.788C244.959 168.241 245.501 168.468 246.202 168.468C246.903 168.468 247.441 168.241 247.817 167.788C248.202 167.335 248.394 166.737 248.394 165.994Z" fill="#073731"/>
</svg>
