<svg width="1020" height="820" viewBox="0 0 1020 820" fill="none" xmlns="http://www.w3.org/2000/svg">
<path d="M84.7507 116.574L108.68 100.632L122.639 75.723L127.625 36.8651L150.557 13.949H192.434L227.331 8.96719L242.287 0L293.138 20.9235H316.07L341.994 51.8105L358.944 71.7375L375.894 75.723L387.859 67.7521H403.812L438.71 42.8433L464.633 51.8105L482.581 67.7521L502.522 75.723L552.375 89.6719L597.243 94.6537L607.214 75.723L619.179 62.7704L648.094 51.8105L685.982 42.8433H716.891H744.809L778.71 51.8105L803.636 67.7521H838.534L852.493 51.8105L876.422 31.8834H901.349L912.317 17.9344H934.252L953.196 42.8433L970.147 67.7521L981.114 103.621V128.53L1009.03 133.512L1020 146.464V166.391L1015.01 181.337L1020 189.307V203.256L1000.06 213.22L981.114 227.169L963.167 221.191L944.223 249.089L920.293 293.925V313.852L912.317 322.819H901.349L896.364 339.757L901.349 350.717L896.364 368.651L867.449 383.597V397.546L863.46 434.411L847.507 451.349L826.569 459.32L811.613 467.29V487.217V505.152L792.669 526.075V545.006L769.736 563.937L785.689 579.878L769.736 584.86L753.783 601.798L758.768 608.773L744.809 633.682H717.889L701.935 601.798L672.023 579.878L665.044 594.824L642.111 601.798L637.126 584.86L615.191 601.798L597.243 625.711L575.308 639.66L559.355 655.601L526.452 685.492V740.292L498.534 776.16L475.601 755.237L483.578 792.102H457.654L385.865 808.044L303.109 820L274.194 808.044L252.258 788.117L236.305 744.277L209.384 695.456L183.46 665.565L159.531 645.638L136.598 638.663H122.639L83.7537 634.678L39.8827 638.663H6.97947V617.74L7.97654 601.798V585.857V553.973L12.9619 545.006L0 510.134L7.97654 478.25L6.97947 464.301L7.97654 411.495L39.8827 402.527V375.626L58.827 347.728L89.7361 321.823L78.7683 307.874L84.7507 293.925H93.7243V263.038L89.7361 237.132L68.7977 207.242L78.7683 190.304L89.7361 181.337L78.7683 175.358L84.7507 149.453V116.574Z" fill="#073731"/>
<path d="M169.709 321.606H159.068V350.95H153.186V321.606H142.639V316.825H169.709V321.606ZM179.271 328.356C181.131 326.2 183.482 325.122 186.326 325.122C191.732 325.122 194.475 328.208 194.553 334.38V350.95H188.857V334.591C188.857 332.841 188.475 331.606 187.709 330.888C186.959 330.153 185.85 329.786 184.381 329.786C182.1 329.786 180.396 330.802 179.271 332.833V350.95H173.576V314.95H179.271V328.356ZM211.498 351.419C207.889 351.419 204.959 350.286 202.709 348.021C200.475 345.739 199.357 342.708 199.357 338.927V338.224C199.357 335.692 199.842 333.435 200.811 331.45C201.795 329.45 203.17 327.896 204.936 326.786C206.701 325.677 208.67 325.122 210.842 325.122C214.295 325.122 216.959 326.224 218.834 328.427C220.725 330.63 221.67 333.747 221.67 337.778V340.075H205.1C205.271 342.169 205.967 343.825 207.186 345.044C208.42 346.263 209.967 346.872 211.826 346.872C214.436 346.872 216.561 345.817 218.201 343.708L221.271 346.638C220.256 348.153 218.896 349.333 217.193 350.177C215.506 351.005 213.607 351.419 211.498 351.419ZM210.818 329.692C209.256 329.692 207.99 330.239 207.021 331.333C206.068 332.427 205.459 333.95 205.193 335.903H216.045V335.481C215.92 333.575 215.412 332.138 214.521 331.169C213.631 330.185 212.396 329.692 210.818 329.692ZM265.686 350.95H259.756L244.545 326.739V350.95H238.615V316.825H244.545L259.803 341.13V316.825H265.686V350.95ZM278.201 350.95H272.506V325.591H278.201V350.95ZM272.154 319.005C272.154 318.13 272.428 317.403 272.975 316.825C273.537 316.247 274.334 315.958 275.365 315.958C276.396 315.958 277.193 316.247 277.756 316.825C278.318 317.403 278.6 318.13 278.6 319.005C278.6 319.864 278.318 320.583 277.756 321.161C277.193 321.724 276.396 322.005 275.365 322.005C274.334 322.005 273.537 321.724 272.975 321.161C272.428 320.583 272.154 319.864 272.154 319.005ZM283.428 338.083C283.428 334.146 284.35 331.005 286.193 328.661C288.053 326.302 290.514 325.122 293.576 325.122C296.467 325.122 298.74 326.13 300.396 328.146L300.654 325.591H305.787V350.177C305.787 353.505 304.748 356.13 302.67 358.052C300.607 359.974 297.818 360.935 294.303 360.935C292.443 360.935 290.623 360.544 288.842 359.763C287.076 358.997 285.732 357.989 284.811 356.739L287.506 353.317C289.256 355.396 291.412 356.435 293.975 356.435C295.865 356.435 297.357 355.919 298.451 354.888C299.545 353.872 300.092 352.372 300.092 350.388V348.677C298.451 350.505 296.264 351.419 293.529 351.419C290.561 351.419 288.131 350.239 286.24 347.88C284.365 345.521 283.428 342.255 283.428 338.083ZM289.1 338.575C289.1 341.122 289.615 343.13 290.646 344.599C291.693 346.052 293.139 346.778 294.982 346.778C297.279 346.778 298.982 345.794 300.092 343.825V332.669C299.014 330.747 297.326 329.786 295.029 329.786C293.154 329.786 291.693 330.528 290.646 332.013C289.615 333.497 289.1 335.685 289.1 338.575ZM322.826 351.419C319.217 351.419 316.287 350.286 314.037 348.021C311.803 345.739 310.686 342.708 310.686 338.927V338.224C310.686 335.692 311.17 333.435 312.139 331.45C313.123 329.45 314.498 327.896 316.264 326.786C318.029 325.677 319.998 325.122 322.17 325.122C325.623 325.122 328.287 326.224 330.162 328.427C332.053 330.63 332.998 333.747 332.998 337.778V340.075H316.428C316.6 342.169 317.295 343.825 318.514 345.044C319.748 346.263 321.295 346.872 323.154 346.872C325.764 346.872 327.889 345.817 329.529 343.708L332.6 346.638C331.584 348.153 330.225 349.333 328.521 350.177C326.834 351.005 324.936 351.419 322.826 351.419ZM322.146 329.692C320.584 329.692 319.318 330.239 318.35 331.333C317.396 332.427 316.787 333.95 316.521 335.903H327.373V335.481C327.248 333.575 326.74 332.138 325.85 331.169C324.959 330.185 323.725 329.692 322.146 329.692ZM350.717 330.794C349.967 330.669 349.193 330.606 348.396 330.606C345.787 330.606 344.029 331.606 343.123 333.606V350.95H337.428V325.591H342.865L343.006 328.427C344.381 326.224 346.287 325.122 348.725 325.122C349.537 325.122 350.209 325.231 350.74 325.45L350.717 330.794ZM360.373 350.95H354.678V325.591H360.373V350.95ZM354.326 319.005C354.326 318.13 354.6 317.403 355.146 316.825C355.709 316.247 356.506 315.958 357.537 315.958C358.568 315.958 359.365 316.247 359.928 316.825C360.49 317.403 360.771 318.13 360.771 319.005C360.771 319.864 360.49 320.583 359.928 321.161C359.365 321.724 358.568 322.005 357.537 322.005C356.506 322.005 355.709 321.724 355.146 321.161C354.6 320.583 354.326 319.864 354.326 319.005ZM381.748 350.95C381.498 350.466 381.279 349.677 381.092 348.583C379.279 350.474 377.061 351.419 374.436 351.419C371.889 351.419 369.811 350.692 368.201 349.239C366.592 347.786 365.787 345.989 365.787 343.849C365.787 341.146 366.787 339.075 368.787 337.638C370.803 336.185 373.678 335.458 377.412 335.458H380.904V333.794C380.904 332.481 380.537 331.435 379.803 330.653C379.068 329.856 377.951 329.458 376.451 329.458C375.154 329.458 374.092 329.786 373.264 330.442C372.436 331.083 372.021 331.903 372.021 332.903H366.326C366.326 331.513 366.787 330.216 367.709 329.013C368.631 327.794 369.881 326.841 371.459 326.153C373.053 325.466 374.826 325.122 376.779 325.122C379.748 325.122 382.115 325.872 383.881 327.372C385.646 328.856 386.553 330.95 386.6 333.653V345.091C386.6 347.372 386.92 349.192 387.561 350.552V350.95H381.748ZM375.49 346.849C376.615 346.849 377.67 346.575 378.654 346.028C379.654 345.481 380.404 344.747 380.904 343.825V339.044H377.834C375.725 339.044 374.139 339.411 373.076 340.146C372.014 340.88 371.482 341.919 371.482 343.263C371.482 344.356 371.842 345.231 372.561 345.888C373.295 346.528 374.271 346.849 375.49 346.849ZM397.85 325.591L398.014 328.521C399.889 326.255 402.35 325.122 405.396 325.122C410.678 325.122 413.365 328.146 413.459 334.192V350.95H407.764V334.521C407.764 332.911 407.412 331.724 406.709 330.958C406.021 330.177 404.889 329.786 403.311 329.786C401.014 329.786 399.303 330.825 398.178 332.903V350.95H392.482V325.591H397.85ZM186.086 426.798C184.24 428.849 181.54 430.501 177.985 431.754C174.431 433.007 170.534 433.634 166.296 433.634C159.779 433.634 154.572 431.64 150.676 427.652C146.779 423.665 144.694 418.116 144.421 411.007L144.387 406.7C144.387 401.801 145.253 397.529 146.984 393.883C148.716 390.214 151.188 387.4 154.401 385.44C157.637 383.458 161.374 382.467 165.612 382.467C171.81 382.467 176.618 383.891 180.036 386.739C183.477 389.565 185.482 393.792 186.052 399.42H174.499C174.089 396.64 173.2 394.658 171.833 393.473C170.466 392.288 168.529 391.695 166.022 391.695C163.015 391.695 160.69 392.971 159.05 395.523C157.409 398.076 156.577 401.721 156.555 406.461V409.469C156.555 414.436 157.398 418.173 159.084 420.68C160.793 423.163 163.47 424.405 167.116 424.405C170.238 424.405 172.562 423.71 174.089 422.32V414.596H165.749V406.358H186.086V426.798ZM211.55 415.382H205.056V432.95H193.059V383.185H212.644C218.545 383.185 223.16 384.495 226.486 387.115C229.813 389.736 231.477 393.438 231.477 398.224C231.477 401.687 230.77 404.558 229.357 406.837C227.967 409.116 225.78 410.961 222.795 412.374L233.186 432.438V432.95H220.334L211.55 415.382ZM205.056 406.119H212.644C214.922 406.119 216.631 405.527 217.771 404.342C218.933 403.134 219.514 401.459 219.514 399.317C219.514 397.175 218.933 395.501 217.771 394.293C216.608 393.062 214.899 392.447 212.644 392.447H205.056V406.119ZM266.989 423.653H250.549L247.678 432.95H234.86L253.112 383.185H264.392L282.78 432.95H269.895L266.989 423.653ZM253.42 414.391H264.118L258.752 397.13L253.42 414.391ZM286.438 432.95V383.185H302.468C306.866 383.185 310.819 384.187 314.328 386.192C317.837 388.175 320.572 390.989 322.531 394.635C324.514 398.258 325.516 402.325 325.539 406.837V409.127C325.539 413.684 324.571 417.774 322.634 421.397C320.72 424.998 318.008 427.823 314.499 429.874C311.013 431.902 307.116 432.927 302.81 432.95H286.438ZM298.435 392.447V423.722H302.604C306.045 423.722 308.688 422.503 310.534 420.064C312.38 417.604 313.303 413.958 313.303 409.127V406.974C313.303 402.166 312.38 398.543 310.534 396.104C308.688 393.666 306 392.447 302.468 392.447H298.435ZM370.725 383.185V415.758C370.725 419.449 369.938 422.651 368.366 425.362C366.794 428.051 364.538 430.102 361.599 431.515C358.659 432.927 355.184 433.634 351.174 433.634C345.113 433.634 340.339 432.062 336.853 428.917C333.366 425.772 331.589 421.466 331.521 415.997V383.185H343.586V416.236C343.723 421.682 346.252 424.405 351.174 424.405C353.658 424.405 355.537 423.722 356.813 422.354C358.09 420.987 358.728 418.766 358.728 415.689V383.185H370.725ZM405.759 423.653H389.318L386.447 432.95H373.63L391.882 383.185H403.161L421.55 432.95H408.664L405.759 423.653ZM392.189 414.391H402.888L397.521 397.13L392.189 414.391ZM460.173 392.447H445.236V432.95H433.239V392.447H418.576V383.185H460.173V392.447ZM496.13 411.861H477.263V423.722H499.548V432.95H465.266V383.185H499.616V392.447H477.263V402.94H496.13V411.861ZM163.835 499.382H157.341V516.95H145.344V467.185H164.929C170.83 467.185 175.445 468.495 178.771 471.115C182.098 473.736 183.762 477.438 183.762 482.224C183.762 485.687 183.055 488.558 181.643 490.837C180.253 493.116 178.065 494.961 175.08 496.374L185.471 516.438V516.95H172.619L163.835 499.382ZM157.341 490.119H164.929C167.207 490.119 168.916 489.527 170.056 488.342C171.218 487.134 171.799 485.459 171.799 483.317C171.799 481.175 171.218 479.501 170.056 478.293C168.894 477.062 167.185 476.447 164.929 476.447H157.341V490.119ZM221.872 495.861H203.005V507.722H225.29V516.95H191.008V467.185H225.358V476.447H203.005V486.94H221.872V495.861ZM242.175 500.065V516.95H230.178V467.185H250.036C253.841 467.185 257.202 467.891 260.119 469.304C263.059 470.694 265.326 472.688 266.921 475.285C268.539 477.86 269.348 480.788 269.348 484.069C269.348 488.923 267.604 492.808 264.118 495.725C260.655 498.618 255.892 500.065 249.831 500.065H242.175ZM242.175 490.803H250.036C252.36 490.803 254.126 490.222 255.334 489.06C256.564 487.897 257.18 486.257 257.18 484.138C257.18 481.813 256.553 479.956 255.3 478.566C254.047 477.176 252.338 476.47 250.173 476.447H242.175V490.803ZM317.917 493.093C317.917 497.946 317.017 502.242 315.217 505.979C313.417 509.715 310.853 512.598 307.526 514.626C304.222 516.631 300.451 517.634 296.213 517.634C291.975 517.634 288.215 516.665 284.934 514.729C281.652 512.769 279.089 509.978 277.243 506.354C275.42 502.731 274.463 498.573 274.372 493.879V491.076C274.372 486.2 275.261 481.905 277.038 478.19C278.838 474.453 281.402 471.571 284.729 469.543C288.078 467.515 291.883 466.501 296.145 466.501C300.36 466.501 304.12 467.504 307.424 469.509C310.728 471.514 313.291 474.374 315.114 478.088C316.96 481.779 317.894 486.018 317.917 490.803V493.093ZM305.715 491.008C305.715 486.063 304.883 482.315 303.22 479.763C301.579 477.188 299.221 475.9 296.145 475.9C290.129 475.9 286.95 480.412 286.608 489.436L286.574 493.093C286.574 497.969 287.383 501.717 289.001 504.338C290.619 506.958 293.023 508.269 296.213 508.269C299.243 508.269 301.579 506.981 303.22 504.406C304.86 501.831 305.692 498.129 305.715 493.298V491.008ZM342.595 499.382H336.101V516.95H324.104V467.185H343.688C349.59 467.185 354.204 468.495 357.531 471.115C360.858 473.736 362.521 477.438 362.521 482.224C362.521 485.687 361.815 488.558 360.402 490.837C359.012 493.116 356.825 494.961 353.84 496.374L364.23 516.438V516.95H351.379L342.595 499.382ZM336.101 490.119H343.688C345.967 490.119 347.676 489.527 348.815 488.342C349.978 487.134 350.559 485.459 350.559 483.317C350.559 481.175 349.978 479.501 348.815 478.293C347.653 477.062 345.944 476.447 343.688 476.447H336.101V490.119ZM407.126 476.447H392.189V516.95H380.192V476.447H365.529V467.185H407.126V476.447Z" fill="#FEBA10"/>
<rect x="538.416" y="312.855" width="199.413" height="199.271" fill="#FEBA10"/>
<path d="M633.741 416.71H599.63V409.942L615.729 392.784C617.939 390.369 619.568 388.261 620.616 386.461C621.687 384.661 622.223 382.952 622.223 381.334C622.223 379.123 621.664 377.392 620.548 376.138C619.431 374.862 617.836 374.224 615.763 374.224C613.53 374.224 611.764 374.999 610.465 376.549C609.189 378.075 608.551 380.092 608.551 382.598H598.639C598.639 379.568 599.356 376.799 600.792 374.293C602.25 371.786 604.301 369.827 606.944 368.414C609.588 366.978 612.584 366.26 615.934 366.26C621.061 366.26 625.037 367.491 627.862 369.952C630.711 372.413 632.135 375.888 632.135 380.377C632.135 382.838 631.497 385.344 630.221 387.896C628.945 390.448 626.757 393.422 623.658 396.817L612.345 408.746H633.741V416.71ZM673.321 396.134C673.321 403.015 671.897 408.279 669.049 411.925C666.201 415.57 662.031 417.393 656.539 417.393C651.116 417.393 646.969 415.605 644.098 412.027C641.227 408.45 639.757 403.323 639.688 396.646V387.486C639.688 380.536 641.124 375.261 643.995 371.661C646.889 368.061 651.048 366.26 656.471 366.26C661.894 366.26 666.041 368.049 668.912 371.627C671.783 375.181 673.253 380.297 673.321 386.973V396.134ZM663.443 386.085C663.443 381.96 662.874 378.964 661.734 377.095C660.618 375.204 658.863 374.259 656.471 374.259C654.146 374.259 652.426 375.159 651.31 376.959C650.216 378.736 649.635 381.527 649.566 385.333V397.432C649.566 401.488 650.113 404.508 651.207 406.49C652.324 408.45 654.101 409.429 656.539 409.429C658.954 409.429 660.698 408.484 661.769 406.593C662.84 404.701 663.398 401.807 663.443 397.911V386.085ZM623.624 478.71H613.746V440.634L601.954 444.291V436.259L622.564 428.876H623.624V478.71ZM672.262 442.172C672.262 444.587 671.658 446.729 670.45 448.597C669.243 450.466 667.579 451.958 665.46 453.075C667.875 454.237 669.789 455.844 671.202 457.894C672.615 459.922 673.321 462.315 673.321 465.072C673.321 469.493 671.817 472.99 668.81 475.565C665.802 478.117 661.712 479.393 656.539 479.393C651.367 479.393 647.265 478.106 644.234 475.531C641.204 472.956 639.688 469.47 639.688 465.072C639.688 462.315 640.395 459.911 641.808 457.86C643.22 455.809 645.123 454.214 647.516 453.075C645.396 451.958 643.733 450.466 642.525 448.597C641.34 446.729 640.748 444.587 640.748 442.172C640.748 437.933 642.161 434.561 644.986 432.054C647.812 429.525 651.651 428.26 656.505 428.26C661.336 428.26 665.164 429.514 667.989 432.02C670.838 434.504 672.262 437.888 672.262 442.172ZM663.409 464.354C663.409 462.19 662.783 460.458 661.529 459.159C660.276 457.86 658.59 457.211 656.471 457.211C654.374 457.211 652.7 457.86 651.446 459.159C650.193 460.435 649.566 462.167 649.566 464.354C649.566 466.473 650.182 468.182 651.412 469.481C652.643 470.78 654.352 471.429 656.539 471.429C658.681 471.429 660.356 470.803 661.563 469.55C662.794 468.296 663.409 466.565 663.409 464.354ZM662.384 442.65C662.384 440.713 661.871 439.164 660.846 438.002C659.82 436.817 658.373 436.224 656.505 436.224C654.659 436.224 653.224 436.794 652.198 437.933C651.173 439.073 650.66 440.645 650.66 442.65C650.66 444.633 651.173 446.228 652.198 447.435C653.224 448.643 654.671 449.247 656.539 449.247C658.408 449.247 659.843 448.643 660.846 447.435C661.871 446.228 662.384 444.633 662.384 442.65Z" fill="#073731"/>
</svg>
